<svg width="142" height="159" viewBox="0 0 142 159" fill="none" xmlns="http://www.w3.org/2000/svg">
<g opacity="0.2" clip-path="url(#clip0)">
<g opacity="0.3">
<g opacity="0.3">
<g opacity="0.3">
<path opacity="0.3" d="M140.416 138.713C139.583 139.232 139.375 139.959 139.896 140.375C140.416 140.79 141.562 140.687 142.291 140.167C143.125 139.648 143.333 138.921 142.812 138.505C142.291 138.194 141.25 138.194 140.416 138.713Z" fill="white"/>
</g>
<g opacity="0.3">
<path opacity="0.3" d="M137.812 149.412C136.979 149.931 136.875 150.658 137.396 150.97C137.917 151.386 138.958 151.282 139.792 150.762C140.521 150.243 140.729 149.516 140.208 149.204C139.687 148.789 138.646 148.893 137.812 149.412Z" fill="white"/>
<path opacity="0.3" d="M131.146 144.634C130.313 145.153 130.104 145.88 130.729 146.296C131.25 146.711 132.396 146.607 133.229 146.088C134.063 145.569 134.271 144.842 133.646 144.426C133.021 144.011 131.979 144.114 131.146 144.634Z" fill="white"/>
</g>
<g opacity="0.3">
<path opacity="0.3" d="M135.417 159.488C134.687 160.007 134.479 160.63 135 160.942C135.521 161.253 136.562 161.15 137.292 160.734C138.021 160.215 138.229 159.592 137.708 159.28C137.292 158.864 136.25 158.968 135.417 159.488Z" fill="white"/>
<path opacity="0.3" d="M128.854 155.125C128.021 155.644 127.917 156.371 128.438 156.683C128.959 156.995 130.104 156.891 130.834 156.475C131.563 155.956 131.771 155.333 131.25 154.917C130.729 154.502 129.688 154.606 128.854 155.125Z" fill="white"/>
<path opacity="0.3" d="M121.875 150.554C121.042 151.074 120.938 151.801 121.458 152.216C122.083 152.632 123.229 152.528 123.958 152.009C124.792 151.489 124.896 150.762 124.375 150.347C123.75 149.931 122.604 150.035 121.875 150.554Z" fill="white"/>
</g>
<g opacity="0.3">
<path opacity="0.3" d="M112.604 156.475C111.771 156.995 111.667 157.722 112.292 158.033C112.917 158.449 114.063 158.241 114.896 157.722C115.729 157.202 115.834 156.475 115.209 156.164C114.479 155.852 113.334 155.956 112.604 156.475Z" fill="white"/>
</g>
</g>
</g>
<path d="M138.021 1.91196C136.771 2.63907 136.563 4.19718 137.292 5.33978C138.125 6.48239 139.688 6.79401 140.938 6.06689C142.084 5.33978 142.396 3.78168 141.667 2.63907C140.833 1.49646 139.271 1.18485 138.021 1.91196Z" fill="white"/>
<path d="M134.479 23.7253C133.334 24.4524 133.021 25.9066 133.854 26.8415C134.688 27.8802 136.146 28.088 137.292 27.3609C138.438 26.6337 138.75 25.2834 137.917 24.2447C137.188 23.3098 135.625 22.9982 134.479 23.7253Z" fill="white"/>
<path d="M124.271 10.6373C123.021 11.3644 122.813 12.9225 123.646 14.0652C124.479 15.2078 126.146 15.4155 127.396 14.6884C128.542 13.9613 128.854 12.4032 128.021 11.3644C127.188 10.2218 125.521 9.9102 124.271 10.6373Z" fill="white"/>
<path d="M140.104 54.264C139.062 54.8872 138.75 56.1337 139.479 56.9647C140.208 57.7957 141.562 57.8995 142.604 57.2763C143.646 56.6531 143.958 55.4066 143.229 54.5756C142.604 53.7446 141.25 53.6407 140.104 54.264Z" fill="white"/>
<path d="M131.146 43.6689C130 44.396 129.792 45.6425 130.521 46.5773C131.25 47.5122 132.812 47.6161 133.854 46.9928C134.896 46.2657 135.208 45.0192 134.479 44.0844C133.75 43.1495 132.292 42.9418 131.146 43.6689Z" fill="white"/>
<path d="M121.354 32.0352C120.208 32.7623 120 34.1127 120.833 35.1514C121.667 36.0863 123.229 36.294 124.375 35.5669C125.521 34.8398 125.729 33.4894 124.896 32.4507C124.063 31.5158 122.5 31.3081 121.354 32.0352Z" fill="white"/>
<path d="M110.625 19.3627C109.375 20.0898 109.167 21.6479 110.104 22.6867C111.042 23.7254 112.708 24.037 113.854 23.206C115 22.4789 115.313 21.0247 114.375 19.8821C113.542 18.8433 111.771 18.6356 110.625 19.3627Z" fill="white"/>
<path d="M136.875 71.2991C135.833 71.9224 135.625 73.065 136.354 73.7921C137.083 74.5192 138.438 74.6231 139.375 73.9998C140.417 73.3766 140.625 72.234 140 71.5069C139.271 70.7797 137.917 70.6759 136.875 71.2991Z" fill="white"/>
<path d="M128.125 61.8467C127.084 62.47 126.875 63.7165 127.604 64.5475C128.334 65.3785 129.792 65.4823 130.834 64.7552C131.875 64.132 132.084 62.8855 131.354 62.1584C130.625 61.3274 129.167 61.2235 128.125 61.8467Z" fill="white"/>
<path d="M118.646 51.5633C117.5 52.2904 117.292 53.5368 118.125 54.3678C118.958 55.1988 120.417 55.4066 121.562 54.6795C122.604 53.9523 122.917 52.7059 122.083 51.8749C121.25 51.0439 119.687 50.94 118.646 51.5633Z" fill="white"/>
<path d="M108.229 40.345C107.084 41.0721 106.875 42.4224 107.813 43.3573C108.646 44.2921 110.313 44.4999 111.459 43.7728C112.604 43.0457 112.813 41.6953 111.979 40.7605C111.042 39.8256 109.375 39.6179 108.229 40.345Z" fill="white"/>
<path d="M96.8753 28.0878C95.6253 28.815 95.5211 30.2692 96.4586 31.4118C97.3961 32.4505 99.1669 32.6582 100.313 31.9311C101.459 31.204 101.667 29.7498 100.729 28.7111C99.7919 27.5685 98.0211 27.3607 96.8753 28.0878Z" fill="white"/>
<path d="M141.771 94.8784C140.834 95.5016 140.625 96.4365 141.25 97.0597C141.875 97.683 143.125 97.683 144.063 97.0597C145 96.4365 145.209 95.5016 144.584 94.8784C143.959 94.359 142.709 94.2552 141.771 94.8784Z" fill="white"/>
<path d="M133.959 87.0879C133.021 87.7111 132.709 88.7499 133.438 89.3731C134.063 89.9963 135.417 90.1002 136.355 89.477C137.292 88.8537 137.605 87.815 136.875 87.1918C136.25 86.4647 134.896 86.4647 133.959 87.0879Z" fill="white"/>
<path d="M125.417 78.6742C124.375 79.2975 124.167 80.4401 124.896 81.1672C125.625 81.8943 126.979 81.8943 128.021 81.2711C129.063 80.6478 129.271 79.5052 128.542 78.882C127.813 78.051 126.354 78.051 125.417 78.6742Z" fill="white"/>
<path d="M116.146 69.5332C115.104 70.1565 114.896 71.403 115.729 72.1301C116.563 72.8572 118.021 72.9611 119.063 72.3378C120.104 71.7146 120.313 70.572 119.583 69.741C118.646 68.91 117.188 68.8061 116.146 69.5332Z" fill="white"/>
<path d="M106.146 59.5615C105 60.2886 104.896 61.535 105.73 62.366C106.563 63.197 108.125 63.3009 109.271 62.6777C110.313 61.9505 110.521 60.7041 109.688 59.8731C108.75 59.0421 107.188 58.8343 106.146 59.5615Z" fill="white"/>
<path d="M95.2088 48.7588C94.0629 49.4859 93.8546 50.8363 94.8963 51.7711C95.8338 52.706 97.5004 52.8099 98.6462 52.0827C99.7921 51.3556 100 50.0053 99.0629 49.0704C98.0213 48.1356 96.2504 48.0317 95.2088 48.7588Z" fill="white"/>
<path d="M83.1253 36.8132C81.8753 37.5403 81.7712 38.9945 82.8128 40.0332C83.8545 41.072 85.6253 41.2797 86.7712 40.4487C87.917 39.7216 88.1253 38.2674 87.0837 37.2287C86.1462 36.2938 84.3753 36.0861 83.1253 36.8132Z" fill="white"/>
<path d="M138.854 108.694C137.917 109.213 137.708 110.148 138.334 110.771C138.959 111.29 140.104 111.29 141.042 110.771C141.979 110.252 142.188 109.317 141.563 108.797C140.938 108.07 139.688 108.07 138.854 108.694Z" fill="white"/>
<path d="M131.146 101.63C130.209 102.253 130 103.188 130.625 103.811C131.25 104.435 132.5 104.435 133.438 103.811C134.375 103.188 134.584 102.253 133.959 101.734C133.334 101.111 132.084 101.111 131.146 101.63Z" fill="white"/>
<path d="M122.813 94.1514C121.875 94.7746 121.667 95.8133 122.396 96.4366C123.125 97.0598 124.479 97.0598 125.417 96.4366C126.354 95.8133 126.563 94.7746 125.938 94.1514C125.208 93.5281 123.854 93.5281 122.813 94.1514Z" fill="white"/>
<path d="M113.855 85.9452C112.813 86.5685 112.709 87.7111 113.438 88.3343C114.167 89.0614 115.625 89.0614 116.563 88.4382C117.605 87.8149 117.709 86.7762 116.98 86.0491C116.355 85.322 114.896 85.322 113.855 85.9452Z" fill="white"/>
<path d="M104.167 77.1161C103.125 77.7393 102.917 78.8819 103.75 79.7129C104.584 80.44 106.042 80.5439 107.084 79.8168C108.125 79.1935 108.334 78.0509 107.5 77.3238C106.771 76.4928 105.209 76.4928 104.167 77.1161Z" fill="white"/>
<path d="M93.5422 67.5597C92.3964 68.2868 92.2922 69.5332 93.2297 70.2604C94.1672 71.0913 95.7297 71.1952 96.7714 70.4681C97.8131 69.741 98.0214 68.5984 97.0839 67.7674C96.2506 66.9364 94.6881 66.8325 93.5422 67.5597Z" fill="white"/>
<path d="M82.0838 57.0686C80.938 57.7957 80.8338 59.146 81.7713 59.977C82.7088 60.808 84.4796 61.0157 85.6255 60.2886C86.7713 59.5615 86.8755 58.315 85.938 57.3802C84.8963 56.4453 83.2296 56.3415 82.0838 57.0686Z" fill="white"/>
<path d="M69.3754 45.5386C68.1254 46.2657 68.1254 47.72 69.167 48.6548C70.2087 49.5897 72.0837 49.7974 73.2295 49.0703C74.3754 48.3432 74.4795 46.889 73.4379 45.9541C72.5004 44.9154 70.6254 44.8115 69.3754 45.5386Z" fill="white"/>
<path d="M136.042 121.47C135.208 121.989 135 122.82 135.521 123.34C136.146 123.859 137.292 123.755 138.125 123.236C138.958 122.717 139.167 121.886 138.646 121.366C138.125 120.951 136.979 120.951 136.042 121.47Z" fill="white"/>
<path d="M128.542 115.238C127.604 115.757 127.396 116.692 128.125 117.211C128.75 117.731 130 117.731 130.833 117.107C131.771 116.588 131.979 115.653 131.354 115.134C130.729 114.614 129.479 114.614 128.542 115.238Z" fill="white"/>
<path d="M120.521 108.486C119.583 109.109 119.375 110.044 120.104 110.563C120.833 111.083 122.083 111.083 123.021 110.563C123.958 109.94 124.167 109.005 123.438 108.486C122.708 107.863 121.458 107.863 120.521 108.486Z" fill="white"/>
<path d="M111.771 101.111C110.833 101.734 110.625 102.773 111.354 103.292C112.083 103.915 113.437 103.915 114.375 103.292C115.312 102.669 115.521 101.734 114.792 101.111C114.167 100.592 112.708 100.488 111.771 101.111Z" fill="white"/>
<path d="M102.396 93.3203C101.354 93.9435 101.25 94.9823 102.083 95.7094C102.917 96.3326 104.375 96.4365 105.312 95.7094C106.25 94.9823 106.458 94.0474 105.729 93.3203C104.792 92.697 103.333 92.5932 102.396 93.3203Z" fill="white"/>
<path d="M92.1876 84.6989C91.1459 85.3221 91.0418 86.4647 91.8751 87.1918C92.7084 87.919 94.2709 87.919 95.3126 87.2957C96.3543 86.6725 96.4584 85.5299 95.6251 84.8028C94.7918 84.1795 93.2293 84.0756 92.1876 84.6989Z" fill="white"/>
<path d="M81.0414 75.4542C79.8956 76.1813 79.7914 77.3239 80.8331 78.1549C81.7706 78.882 83.4373 78.9859 84.4789 78.3626C85.5206 77.6355 85.7289 76.4929 84.7914 75.6619C83.8539 74.8309 82.1873 74.7271 81.0414 75.4542Z" fill="white"/>
<path d="M68.9582 65.3783C67.8124 66.1054 67.7082 67.3519 68.7499 68.2868C69.7916 69.1178 71.5624 69.2216 72.6041 68.4945C73.7499 67.7674 73.8541 66.5209 72.8124 65.69C71.8749 64.7551 70.1041 64.6512 68.9582 65.3783Z" fill="white"/>
<path d="M55.7289 54.264C54.4789 54.9911 54.4789 56.4453 55.6247 57.3802C56.7705 58.315 58.6455 58.4189 59.7914 57.6918C60.9372 56.9647 61.0414 55.6143 59.8955 54.6795C58.7497 53.6407 56.8747 53.5368 55.7289 54.264Z" fill="white"/>
<path d="M140.417 138.713C139.584 139.232 139.375 139.959 139.896 140.375C140.417 140.79 141.563 140.686 142.292 140.167C143.125 139.648 143.334 138.921 142.813 138.505C142.292 138.193 141.25 138.193 140.417 138.713Z" fill="white"/>
<path d="M133.542 133.415C132.709 133.935 132.5 134.766 133.125 135.181C133.75 135.597 134.896 135.597 135.625 134.973C136.459 134.454 136.667 133.623 136.042 133.208C135.521 132.896 134.375 132.896 133.542 133.415Z" fill="white"/>
<path d="M126.146 127.806C125.313 128.325 125.104 129.156 125.729 129.676C126.354 130.195 127.5 130.091 128.438 129.572C129.271 129.053 129.479 128.222 128.854 127.702C128.229 127.183 127.084 127.287 126.146 127.806Z" fill="white"/>
<path d="M118.334 121.781C117.396 122.301 117.292 123.236 117.917 123.755C118.542 124.274 119.792 124.17 120.729 123.651C121.667 123.132 121.771 122.197 121.146 121.678C120.417 121.158 119.167 121.158 118.334 121.781Z" fill="white"/>
<path d="M109.792 115.237C108.854 115.861 108.646 116.796 109.375 117.315C110.104 117.834 111.459 117.834 112.292 117.211C113.229 116.588 113.438 115.757 112.709 115.134C112.084 114.614 110.729 114.614 109.792 115.237Z" fill="white"/>
<path d="M100.729 108.174C99.7919 108.797 99.5836 109.732 100.417 110.355C101.146 110.979 102.604 110.875 103.542 110.355C104.479 109.732 104.688 108.797 103.854 108.174C103.125 107.551 101.667 107.551 100.729 108.174Z" fill="white"/>
<path d="M90.8337 100.591C89.7921 101.215 89.6879 102.253 90.5212 102.877C91.3546 103.5 92.8129 103.5 93.8546 102.877C94.8963 102.253 95.0004 101.215 94.1671 100.591C93.3338 99.9681 91.8754 99.9681 90.8337 100.591Z" fill="white"/>
<path d="M80.2088 92.3854C79.1671 93.0086 79.0629 94.1513 80.0004 94.8784C80.9379 95.6055 82.5004 95.6055 83.5421 94.9822C84.5838 94.359 84.6879 93.2164 83.8546 92.4893C82.8129 91.7622 81.2504 91.6583 80.2088 92.3854Z" fill="white"/>
<path d="M68.5419 83.4522C67.3961 84.1793 67.3961 85.3219 68.3336 86.049C69.2711 86.7761 71.0419 86.88 72.0836 86.1529C73.1253 85.4258 73.2294 84.2832 72.2919 83.556C71.3544 82.8289 69.6878 82.7251 68.5419 83.4522Z" fill="white"/>
<path d="M55.8336 73.6882C54.6877 74.4153 54.6877 75.6618 55.7294 76.4928C56.771 77.3238 58.5419 77.4276 59.6877 76.7005C60.8335 75.9734 60.8335 74.7269 59.7919 73.896C58.8544 73.065 56.9794 72.9611 55.8336 73.6882Z" fill="white"/>
<path d="M41.9792 62.9892C40.7292 63.7164 40.8334 65.0667 41.9792 66.0016C43.1251 66.9364 45.1042 67.0403 46.2501 66.3132C47.3959 65.5861 47.5001 64.2357 46.2501 63.3009C45.1042 62.366 43.2292 62.2621 41.9792 62.9892Z" fill="white"/>
<path d="M131.146 144.634C130.313 145.153 130.104 145.88 130.729 146.296C131.25 146.711 132.396 146.607 133.229 146.088C134.063 145.569 134.271 144.841 133.646 144.426C133.021 144.01 131.979 144.114 131.146 144.634Z" fill="white"/>
<path d="M123.958 139.544C123.125 140.063 122.917 140.894 123.542 141.31C124.167 141.725 125.312 141.621 126.146 141.102C126.979 140.583 127.187 139.752 126.562 139.336C125.937 138.921 124.792 139.025 123.958 139.544Z" fill="white"/>
<path d="M116.25 134.143C115.417 134.662 115.208 135.493 115.833 136.012C116.458 136.428 117.708 136.428 118.542 135.805C119.375 135.285 119.583 134.454 118.958 133.935C118.333 133.519 117.083 133.519 116.25 134.143Z" fill="white"/>
<path d="M108.021 128.222C107.083 128.741 106.979 129.676 107.708 130.195C108.437 130.715 109.687 130.611 110.625 130.091C111.562 129.572 111.667 128.637 111.042 128.222C110.208 127.599 108.958 127.702 108.021 128.222Z" fill="white"/>
<path d="M99.1667 121.989C98.2292 122.613 98.125 123.444 98.8542 124.067C99.5833 124.586 100.937 124.586 101.875 123.963C102.812 123.34 102.917 122.509 102.188 121.989C101.458 121.366 100.104 121.366 99.1667 121.989Z" fill="white"/>
<path d="M89.5833 115.238C88.6458 115.861 88.5417 116.796 89.2708 117.419C90.1042 117.938 91.4583 117.938 92.5 117.315C93.4375 116.692 93.5417 115.757 92.8125 115.134C91.9792 114.614 90.625 114.614 89.5833 115.238Z" fill="white"/>
<path d="M79.3751 107.966C78.3334 108.59 78.2293 109.628 79.1668 110.252C80.0001 110.875 81.5626 110.875 82.5001 110.252C83.5418 109.628 83.6459 108.59 82.7084 107.966C81.8751 107.239 80.3126 107.239 79.3751 107.966Z" fill="white"/>
<path d="M68.1253 99.9682C67.0836 100.591 66.9794 101.734 67.9169 102.357C68.8544 102.981 70.4169 102.981 71.4586 102.357C72.5003 101.734 72.6044 100.591 71.6669 99.9682C70.8336 99.345 69.1669 99.345 68.1253 99.9682Z" fill="white"/>
<path d="M56.0417 91.3467C54.8958 92.0738 54.8959 93.2164 55.9375 93.9435C56.9792 94.6706 58.6458 94.6706 59.7917 94.0474C60.8333 93.3203 60.9375 92.1777 59.8958 91.4505C58.8542 90.7234 57.0833 90.7234 56.0417 91.3467Z" fill="white"/>
<path d="M42.8125 81.9981C41.6667 82.7252 41.6667 83.9717 42.8125 84.8026C43.9584 85.6336 45.7292 85.6336 46.875 84.9065C48.0208 84.1794 48.0208 82.9329 46.875 82.2058C45.7292 81.3748 43.9584 81.2709 42.8125 81.9981Z" fill="white"/>
<path d="M28.2293 71.7146C26.9793 72.4417 27.0834 73.792 28.3334 74.7269C29.5834 75.5579 31.5626 75.6618 32.7084 74.9347C33.8542 74.2075 33.8542 72.8572 32.6042 72.0262C31.4584 70.9875 29.4793 70.8836 28.2293 71.7146Z" fill="white"/>
<path d="M121.875 150.554C121.042 151.074 120.938 151.801 121.458 152.216C122.083 152.632 123.229 152.528 123.958 152.009C124.792 151.489 124.896 150.762 124.375 150.347C123.75 149.931 122.604 150.035 121.875 150.554Z" fill="white"/>
<path d="M114.375 145.673C113.542 146.192 113.333 147.023 114.063 147.335C114.688 147.75 115.833 147.646 116.667 147.127C117.5 146.607 117.708 145.88 117.083 145.465C116.354 145.049 115.208 145.153 114.375 145.673Z" fill="white"/>
<path d="M106.354 140.375C105.521 140.894 105.312 141.725 106.042 142.141C106.771 142.556 107.917 142.452 108.854 141.933C109.687 141.414 109.896 140.583 109.167 140.167C108.437 139.752 107.187 139.856 106.354 140.375Z" fill="white"/>
<path d="M97.7083 134.766C96.7708 135.285 96.6667 136.22 97.3958 136.635C98.125 137.155 99.4792 137.051 100.313 136.428C101.146 135.804 101.354 134.974 100.625 134.558C99.8958 134.143 98.6458 134.246 97.7083 134.766Z" fill="white"/>
<path d="M88.5418 128.741C87.6043 129.364 87.5002 130.195 88.3335 130.715C89.0627 131.234 90.521 131.13 91.4585 130.611C92.396 129.988 92.5002 129.157 91.771 128.637C90.8335 128.118 89.4793 128.118 88.5418 128.741Z" fill="white"/>
<path d="M78.5417 122.301C77.6042 122.924 77.5001 123.859 78.3334 124.378C79.1667 124.898 80.6251 124.898 81.5626 124.275C82.5 123.651 82.6042 122.717 81.7709 122.197C80.9375 121.574 79.4792 121.678 78.5417 122.301Z" fill="white"/>
<path d="M67.8124 115.238C66.7708 115.861 66.7708 116.899 67.6041 117.419C68.5416 118.042 70.1041 117.938 71.0416 117.315C72.0833 116.692 72.0833 115.653 71.2499 115.134C70.4166 114.614 68.8541 114.614 67.8124 115.238Z" fill="white"/>
<path d="M56.1459 107.655C55.1043 108.278 55.1042 109.421 56.0418 110.044C56.9793 110.667 58.646 110.667 59.6876 110.044C60.7293 109.421 60.7293 108.382 59.7918 107.655C58.8543 106.928 57.1876 106.928 56.1459 107.655Z" fill="white"/>
<path d="M43.5418 99.345C42.396 100.072 42.396 101.215 43.5418 101.838C44.5835 102.565 46.3543 102.565 47.396 101.838C48.4377 101.111 48.5419 100.072 47.396 99.345C46.3543 98.6179 44.5835 98.6179 43.5418 99.345Z" fill="white"/>
<path d="M29.6877 90.308C28.5418 91.0351 28.5418 92.2816 29.7918 93.0087C30.9377 93.7358 32.8127 93.8397 33.9585 93.1126C35.1043 92.3855 35.1043 91.2429 33.9585 90.4119C32.7085 89.5809 30.8335 89.5809 29.6877 90.308Z" fill="white"/>
<path d="M14.5834 80.44C13.3334 81.1671 13.4376 82.5175 14.7917 83.3485C16.0417 84.1794 18.1251 84.2833 19.2709 83.4523C20.4167 82.7252 20.4167 81.3749 19.1667 80.5439C17.7084 79.7129 15.7292 79.609 14.5834 80.44Z" fill="white"/>
<path d="M112.604 156.475C111.771 156.995 111.667 157.722 112.292 158.033C112.917 158.449 114.063 158.241 114.896 157.722C115.729 157.202 115.834 156.475 115.209 156.164C114.479 155.852 113.334 155.956 112.604 156.475Z" fill="white"/>
<path d="M104.792 151.697C103.958 152.216 103.854 152.944 104.479 153.359C105.104 153.775 106.354 153.671 107.188 153.151C108.021 152.632 108.125 151.905 107.5 151.489C106.771 151.074 105.625 151.178 104.792 151.697Z" fill="white"/>
<path d="M96.3545 146.711C95.5212 147.23 95.3128 148.061 96.042 148.477C96.7712 148.892 98.0212 148.789 98.8545 148.269C99.6878 147.75 99.8962 146.919 99.167 146.503C98.542 146.088 97.292 146.192 96.3545 146.711Z" fill="white"/>
<path d="M87.5 141.31C86.5625 141.829 86.4584 142.66 87.2917 143.18C88.0209 143.595 89.375 143.491 90.3125 142.972C91.25 142.452 91.3542 141.621 90.5209 141.102C89.6875 140.687 88.3334 140.791 87.5 141.31Z" fill="white"/>
<path d="M77.8129 135.493C76.8754 136.116 76.7712 136.947 77.6045 137.466C78.4379 137.986 79.792 137.882 80.7295 137.259C81.667 136.635 81.7712 135.805 80.9379 135.285C80.2087 134.87 78.7504 134.974 77.8129 135.493Z" fill="white"/>
<path d="M67.5003 129.26C66.5628 129.884 66.4587 130.819 67.3962 131.338C68.2295 131.857 69.792 131.753 70.7295 131.13C71.667 130.507 71.7712 129.572 70.9379 129.053C69.8962 128.637 68.4379 128.637 67.5003 129.26Z" fill="white"/>
<path d="M56.2501 122.509C55.2084 123.132 55.2084 124.171 56.1459 124.69C57.0834 125.209 58.646 125.209 59.6876 124.586C60.7293 123.963 60.7293 123.028 59.7918 122.405C58.8543 121.885 57.2918 121.885 56.2501 122.509Z" fill="white"/>
<path d="M44.167 115.238C43.1253 115.861 43.1253 116.9 44.167 117.523C45.2086 118.146 46.8753 118.042 47.917 117.419C48.9587 116.796 48.9587 115.757 47.917 115.134C46.8753 114.511 45.2086 114.614 44.167 115.238Z" fill="white"/>
<path d="M30.938 107.343C29.7922 108.07 29.8963 109.109 31.0422 109.836C32.188 110.459 33.9588 110.459 35.0005 109.836C36.0422 109.109 36.0422 108.07 35.0005 107.343C33.8547 106.616 32.0838 106.616 30.938 107.343Z" fill="white"/>
<path d="M16.5628 98.6179C15.417 99.345 15.5212 100.488 16.7712 101.215C18.0212 101.942 19.8962 101.942 21.042 101.215C22.1878 100.488 22.0837 99.345 20.9378 98.6179C19.6878 97.8908 17.7087 97.8908 16.5628 98.6179Z" fill="white"/>
<path d="M0.833418 89.1654C-0.416581 89.8925 -0.208229 91.2429 1.14594 91.97C2.5001 92.801 4.47926 92.801 5.72926 92.0739C6.87509 91.3468 6.77091 90.1003 5.52092 89.2693C4.06258 88.4383 1.97925 88.3344 0.833418 89.1654Z" fill="white"/>
</g>
<defs>
<clipPath id="clip0">
<rect width="159" height="142" fill="white" transform="matrix(1.19249e-08 -1 -1 -1.19249e-08 142 159)"/>
</clipPath>
</defs>
</svg>
