<svg width="20" height="20" viewBox="0 0 20 20" fill="none" xmlns="http://www.w3.org/2000/svg">
<path d="M6.00033 7.33335V6.66669C5.63214 6.66669 5.33366 6.96516 5.33366 7.33335H6.00033ZM6.00033 8.66669L6.47173 9.13809L6.66699 8.94283V8.66669H6.00033ZM3.72418 9.05721L3.25278 9.52862H3.25278L3.72418 9.05721ZM8.66699 17.3334H9.33366V17.0572L9.1384 16.8619L8.66699 17.3334ZM7.33366 16H6.66699V16.2762L6.86225 16.4714L7.33366 16ZM7.33366 14H8.00033V13.7239L7.80506 13.5286L7.33366 14ZM6.00033 12.6667H5.33366V12.9428L5.52892 13.1381L6.00033 12.6667ZM6.00033 11.3334V10.6667C5.63214 10.6667 5.33366 10.9652 5.33366 11.3334H6.00033ZM12.0003 0.666687V3.33335H13.3337V0.666687H12.0003ZM11.3337 4.00002H10.0003V5.33335H11.3337V4.00002ZM7.33366 6.66669H6.00033V8.00002H7.33366V6.66669ZM5.33366 7.33335V8.66669H6.66699V7.33335H5.33366ZM5.52892 8.19528L5.1384 8.58581L6.08121 9.52862L6.47173 9.13809L5.52892 8.19528ZM4.19559 8.58581L1.80506 6.19528L0.862254 7.13809L3.25278 9.52862L4.19559 8.58581ZM8.00033 6.00002C8.00033 6.36821 7.70185 6.66669 7.33366 6.66669V8.00002C8.43823 8.00002 9.33366 7.10459 9.33366 6.00002H8.00033ZM10.0003 4.00002C8.89576 4.00002 8.00033 4.89545 8.00033 6.00002H9.33366C9.33366 5.63183 9.63214 5.33335 10.0003 5.33335V4.00002ZM5.1384 8.58581C4.87805 8.84616 4.45594 8.84616 4.19559 8.58581L3.25278 9.52862C4.03383 10.3097 5.30016 10.3097 6.08121 9.52862L5.1384 8.58581ZM12.0003 3.33335C12.0003 3.70154 11.7018 4.00002 11.3337 4.00002V5.33335C12.4382 5.33335 13.3337 4.43792 13.3337 3.33335H12.0003ZM9.33366 19.3334V17.3334H8.00033V19.3334H9.33366ZM9.1384 16.8619L7.80506 15.5286L6.86225 16.4714L8.19559 17.8048L9.1384 16.8619ZM8.00033 16V14H6.66699V16H8.00033ZM7.80506 13.5286L6.47173 12.1953L5.52892 13.1381L6.86225 14.4714L7.80506 13.5286ZM6.66699 12.6667V11.3334H5.33366V12.6667H6.66699ZM6.00033 12H11.3337V10.6667H6.00033V12ZM12.0003 12.6667V13.5556H13.3337V12.6667H12.0003ZM14.4448 16H18.0003V14.6667H14.4448V16ZM13.3337 14.8889C13.3337 15.5026 13.8311 16 14.4448 16V14.6667C14.5675 14.6667 14.667 14.7662 14.667 14.8889H13.3337ZM13.1114 14.6667C13.2342 14.6667 13.3337 14.7662 13.3337 14.8889H14.667C14.667 14.0298 13.9705 13.3334 13.1114 13.3334V14.6667ZM12.0003 13.5556C12.0003 14.1692 12.4978 14.6667 13.1114 14.6667V13.3334C13.2342 13.3334 13.3337 13.4328 13.3337 13.5556H12.0003ZM11.3337 12C11.7018 12 12.0003 12.2985 12.0003 12.6667H13.3337C13.3337 11.5621 12.4382 10.6667 11.3337 10.6667V12ZM10.0003 18.6667C5.21386 18.6667 1.33366 14.7865 1.33366 10H0.000325501C0.000325501 15.5229 4.47748 20 10.0003 20V18.6667ZM18.667 10C18.667 14.7865 14.7868 18.6667 10.0003 18.6667V20C15.5232 20 20.0003 15.5229 20.0003 10H18.667ZM10.0003 1.33335C14.7868 1.33335 18.667 5.21355 18.667 10H20.0003C20.0003 4.47717 15.5232 2.03252e-05 10.0003 2.03252e-05V1.33335ZM10.0003 2.03252e-05C4.47748 2.03252e-05 0.000325501 4.47717 0.000325501 10H1.33366C1.33366 5.21355 5.21386 1.33335 10.0003 1.33335V2.03252e-05Z" fill="#FF2C9C"/>
</svg>
