<svg width="20" height="20" viewBox="0 0 20 20" fill="none" xmlns="http://www.w3.org/2000/svg">
<path d="M5.99984 7.33335V6.66669C5.63165 6.66669 5.33317 6.96516 5.33317 7.33335H5.99984ZM5.99984 8.66669L6.47124 9.13809L6.6665 8.94283V8.66669H5.99984ZM3.72369 9.05721L3.25229 9.52862H3.25229L3.72369 9.05721ZM8.6665 17.3334H9.33317V17.0572L9.13791 16.8619L8.6665 17.3334ZM7.33317 16H6.6665V16.2762L6.86177 16.4714L7.33317 16ZM7.33317 14H7.99984V13.7239L7.80457 13.5286L7.33317 14ZM5.99984 12.6667H5.33317V12.9428L5.52843 13.1381L5.99984 12.6667ZM5.99984 11.3334V10.6667C5.63165 10.6667 5.33317 10.9652 5.33317 11.3334H5.99984ZM11.9998 0.666687V3.33335H13.3332V0.666687H11.9998ZM11.3332 4.00002H9.99984V5.33335H11.3332V4.00002ZM7.33317 6.66669H5.99984V8.00002H7.33317V6.66669ZM5.33317 7.33335V8.66669H6.6665V7.33335H5.33317ZM5.52843 8.19528L5.13791 8.58581L6.08072 9.52862L6.47124 9.13809L5.52843 8.19528ZM4.1951 8.58581L1.80458 6.19528L0.861766 7.13809L3.25229 9.52862L4.1951 8.58581ZM7.99984 6.00002C7.99984 6.36821 7.70136 6.66669 7.33317 6.66669V8.00002C8.43774 8.00002 9.33317 7.10459 9.33317 6.00002H7.99984ZM9.99984 4.00002C8.89527 4.00002 7.99984 4.89545 7.99984 6.00002H9.33317C9.33317 5.63183 9.63165 5.33335 9.99984 5.33335V4.00002ZM5.13791 8.58581C4.87756 8.84616 4.45545 8.84616 4.1951 8.58581L3.25229 9.52862C4.03334 10.3097 5.29967 10.3097 6.08072 9.52862L5.13791 8.58581ZM11.9998 3.33335C11.9998 3.70154 11.7014 4.00002 11.3332 4.00002V5.33335C12.4377 5.33335 13.3332 4.43792 13.3332 3.33335H11.9998ZM9.33317 19.3334V17.3334H7.99984V19.3334H9.33317ZM9.13791 16.8619L7.80457 15.5286L6.86177 16.4714L8.1951 17.8048L9.13791 16.8619ZM7.99984 16V14H6.6665V16H7.99984ZM7.80457 13.5286L6.47124 12.1953L5.52843 13.1381L6.86177 14.4714L7.80457 13.5286ZM6.6665 12.6667V11.3334H5.33317V12.6667H6.6665ZM5.99984 12H11.3332V10.6667H5.99984V12ZM11.9998 12.6667V13.5556H13.3332V12.6667H11.9998ZM14.4443 16H17.9998V14.6667H14.4443V16ZM13.3332 14.8889C13.3332 15.5026 13.8306 16 14.4443 16V14.6667C14.567 14.6667 14.6665 14.7662 14.6665 14.8889H13.3332ZM13.1109 14.6667C13.2337 14.6667 13.3332 14.7662 13.3332 14.8889H14.6665C14.6665 14.0298 13.9701 13.3334 13.1109 13.3334V14.6667ZM11.9998 13.5556C11.9998 14.1692 12.4973 14.6667 13.1109 14.6667V13.3334C13.2337 13.3334 13.3332 13.4328 13.3332 13.5556H11.9998ZM11.3332 12C11.7014 12 11.9998 12.2985 11.9998 12.6667H13.3332C13.3332 11.5621 12.4377 10.6667 11.3332 10.6667V12ZM9.99984 18.6667C5.21337 18.6667 1.33317 14.7865 1.33317 10H-0.00016278C-0.00016278 15.5229 4.47699 20 9.99984 20V18.6667ZM18.6665 10C18.6665 14.7865 14.7863 18.6667 9.99984 18.6667V20C15.5227 20 19.9998 15.5229 19.9998 10H18.6665ZM9.99984 1.33335C14.7863 1.33335 18.6665 5.21355 18.6665 10H19.9998C19.9998 4.47717 15.5227 2.03252e-05 9.99984 2.03252e-05V1.33335ZM9.99984 2.03252e-05C4.47699 2.03252e-05 -0.00016278 4.47717 -0.00016278 10H1.33317C1.33317 5.21355 5.21337 1.33335 9.99984 1.33335V2.03252e-05Z" fill="white"/>
</svg>
