<svg width="151" height="65" viewBox="0 0 151 65" fill="none" xmlns="http://www.w3.org/2000/svg">
<g clip-path="url(#clip0)">
<path d="M35.6764 14.6993L34.3183 18.2224C42.6743 21.4192 48.6098 29.5116 48.6098 38.9927C48.6098 51.2704 38.6562 61.224 26.3785 61.224C14.1009 61.224 4.14725 51.2704 4.14725 38.9911C4.14725 29.5566 10.0233 21.4963 18.315 18.269L20.0718 13.7173C8.76484 16.5123 0.379883 26.723 0.379883 38.8947C0.379883 53.2183 11.9922 64.8306 26.3159 64.8306C40.6396 64.8306 52.2519 53.2183 52.2519 38.8947C52.2535 27.8706 45.3761 18.4538 35.6764 14.6993Z" fill="#FF2C9C"/>
<path d="M42.6549 37.8226L43.2271 30.4872C28.9371 22.1038 11.3122 26.9625 11.3122 26.9625L10.5503 34.584L7.88234 34.2031L7.21533 40.9664L9.97817 41.0612L9.31117 46.6817C23.4115 55.3511 41.4157 50.3012 41.4157 50.3012L41.7018 44.5859L44.7508 44.8719L45.1317 38.1087L42.6549 37.8226ZM37.3205 46.5403C37.3205 46.5403 24.4594 49.3272 14.0991 44.2532L15.3142 30.5354C15.3142 30.5354 29.2473 28.0345 38.6786 33.107L37.3205 46.5403Z" fill="white"/>
<path d="M33.161 24.3797L22.292 23.4579L21.9981 26.9235L32.8671 27.8452L33.161 24.3797Z" fill="white"/>
<path d="M25.3162 24.0325L27.6033 17.1021L22.4585 17.3159L29.4612 1.45404L27.3895 13.0294L32.6757 13.6015L30.2472 24.4616L25.3162 24.0325Z" fill="white"/>
<path d="M19.326 40.7108L19.9142 39.5359L20.3916 38.5715L21.4106 36.5336L22.0776 38.7098L22.4006 39.74L22.7832 40.9937L23.987 41.0917L22.0679 35.0887L20.9718 34.9987L18.1045 40.6111L19.326 40.7108Z" fill="white" stroke="white" stroke-width="0.875444" stroke-miterlimit="10"/>
<path d="M29.2811 41.545L29.8693 40.3701L30.3467 39.4058L31.3657 37.3678L32.0327 39.544L32.3557 40.5742L32.7382 41.8279L33.9421 41.9259L32.023 35.9229L30.9269 35.8329L28.0596 41.4454L29.2811 41.545Z" fill="white" stroke="white" stroke-width="0.875444" stroke-miterlimit="10"/>
<path d="M68.4892 53.7355C71.3569 53.7355 73.3322 52.1934 74.1032 49.7503L71.998 49.1698C71.5128 50.7899 70.3519 51.7689 68.4892 51.7689C65.9768 51.7689 64.7119 49.9668 64.7119 47.2378C64.7206 44.5088 65.9768 42.7067 68.4892 42.7067C70.3519 42.7067 71.5128 43.6857 71.998 45.3058L74.1032 44.7254C73.3322 42.2822 71.3569 40.7401 68.4892 40.7401C64.7552 40.7401 62.52 43.3652 62.52 47.2378C62.52 51.1104 64.7552 53.7355 68.4892 53.7355Z" fill="#FF2C9C"/>
<path d="M78.7865 44.6127C78.3966 44.8553 78.0847 45.2105 77.8508 45.6177V44.1189H76.0054V53.4756H78.102V48.7193C78.102 47.6363 78.4832 46.7613 79.3409 46.2935C79.9214 45.9556 80.7098 45.9123 81.2729 46.0682V44.1189C80.4325 43.989 79.4795 44.1362 78.7865 44.6127Z" fill="#FF2C9C"/>
<path d="M88.9543 44.1189L86.4072 50.8159L83.7994 44.1189H81.6249L85.4109 53.415L83.8687 57.6341H85.8267L91.0422 44.1189H88.9543Z" fill="#FF2C9C"/>
<path d="M96.7527 43.859C95.6871 43.859 94.8207 44.1969 94.1623 44.7947V44.1189H92.317V57.6341H94.4222V52.9991C95.0547 53.4669 95.8604 53.7355 96.8307 53.7355C99.4211 53.7355 101.102 51.6043 101.102 48.7973C101.102 45.9556 99.4038 43.859 96.7527 43.859ZM96.5101 51.8642C94.8294 51.8642 94.1623 50.6079 94.1623 48.7973C94.1623 46.9692 94.8467 45.7303 96.4408 45.7303C98.1216 45.7303 98.8926 47.0992 98.8926 48.7973C98.8926 50.5126 98.1389 51.8642 96.5101 51.8642Z" fill="#FF2C9C"/>
<path d="M105.749 45.7563H108.496V44.1189H105.749V41.5198H103.67V44.1189H101.972V45.7563H103.67V49.655C103.67 50.7292 103.592 51.5176 104.025 52.3233C104.753 53.6662 106.642 53.8308 108.496 53.4756V51.7256C107.326 51.8988 106.356 51.9075 105.94 51.2144C105.715 50.8592 105.749 50.2787 105.749 49.5337V45.7563Z" fill="#FF2C9C"/>
<path d="M114.166 53.7355C116.965 53.7355 118.836 51.7169 118.836 48.7973C118.836 45.9036 116.991 43.859 114.166 43.859C111.403 43.859 109.514 45.8603 109.514 48.7973C109.514 51.6909 111.351 53.7355 114.166 53.7355ZM114.166 51.7775C112.555 51.7775 111.723 50.6166 111.723 48.7973C111.723 47.0299 112.486 45.817 114.166 45.817C115.804 45.817 116.627 46.9866 116.627 48.7973C116.627 50.556 115.821 51.7775 114.166 51.7775Z" fill="#FF2C9C"/>
<path d="M131.586 46.8999C132.366 46.4321 132.834 45.5657 132.834 44.4308C132.834 42.7501 131.682 41 129.161 41H124.214V53.4756H129.663C132.123 53.4756 133.414 51.9855 133.414 49.7676C133.414 48.5114 132.782 47.4024 131.586 46.8999ZM126.328 42.9493H129.135C130.122 42.9493 130.711 43.5991 130.711 44.4655C130.711 45.4618 130.027 45.9816 129.135 45.9816H126.328V42.9493ZM129.403 51.509H126.328V47.9309H129.464C130.633 47.9309 131.309 48.702 131.309 49.7069C131.309 50.8159 130.495 51.509 129.403 51.509Z" fill="#FF2C9C"/>
<path d="M139.277 53.7355C142.076 53.7355 143.947 51.7169 143.947 48.7973C143.947 45.9036 142.102 43.859 139.277 43.859C136.513 43.859 134.625 45.8603 134.625 48.7973C134.625 51.6909 136.462 53.7355 139.277 53.7355ZM139.277 51.7775C137.666 51.7775 136.834 50.6166 136.834 48.7973C136.834 47.0299 137.596 45.817 139.277 45.817C140.915 45.817 141.738 46.9866 141.738 48.7973C141.738 50.556 140.932 51.7775 139.277 51.7775Z" fill="#FF2C9C"/>
<path d="M148.593 45.7563H151.34V44.1189H148.593V41.5198H146.514V44.1189H144.816V45.7563H146.514V49.655C146.514 50.7292 146.436 51.5176 146.869 52.3233C147.597 53.6662 149.486 53.8308 151.34 53.4756V51.7256C150.17 51.8988 149.2 51.9075 148.784 51.2144C148.559 50.8592 148.593 50.2787 148.593 49.5337V45.7563Z" fill="#FF2C9C"/>
<path d="M71.1229 33.4756H73.2715L69.3382 21H66.28L62.3467 33.4756H64.4953L65.3529 30.7725H70.2565L71.1229 33.4756ZM65.9594 28.8232L67.7874 23.01L69.6414 28.8232H65.9594Z" fill="white"/>
<path d="M79.7414 23.8503C78.3899 23.8503 77.3676 24.3528 76.6832 25.1585V24.1189H74.8205V33.4756H76.9344V28.6673C76.9344 26.3974 78.0607 25.817 79.1263 25.817C81.1189 25.817 81.3095 27.8182 81.3095 28.9705V33.4756H83.4234V28.2514C83.4234 27.1425 83.1895 23.8503 79.7414 23.8503Z" fill="white"/>
<path d="M88.4219 25.7563H91.1683V24.1189H88.4219V21.5198H86.3427V24.1189H84.6446V25.7563H86.3427V29.6549C86.3427 30.7292 86.2647 31.5176 86.6979 32.3233C87.4256 33.6662 89.3143 33.8308 91.1683 33.4756V31.7255C89.9987 31.8988 89.0284 31.9075 88.6125 31.2144C88.3873 30.8592 88.4219 30.2787 88.4219 29.5336V25.7563Z" fill="white"/>
<path d="M100.553 25.6004C99.9379 24.3615 98.6124 23.859 96.9489 23.859C94.7484 23.859 93.4575 24.9073 92.9983 26.4841L94.9043 27.0818C95.2162 26.1288 96.1086 25.7736 96.9489 25.7736C98.2225 25.7736 98.7856 26.2761 98.8636 27.3504C97.2262 27.593 95.7794 27.7923 94.7917 28.1128C93.3102 28.624 92.6605 29.551 92.6605 30.9112C92.6605 32.4533 93.7607 33.7355 95.7967 33.7355C97.2868 33.7355 98.2831 33.259 99.0802 32.2194V33.4756H100.908V27.7316C100.908 26.9259 100.882 26.2588 100.553 25.6004ZM98.6297 30.5213C98.4218 31.1711 97.6334 32.0721 96.2125 32.0721C95.2249 32.0721 94.7051 31.5696 94.7051 30.8852C94.7051 30.2787 95.1209 29.9235 95.84 29.6549C96.4984 29.4297 97.3475 29.2997 98.8376 29.0658C98.8289 29.499 98.803 30.0968 98.6297 30.5213Z" fill="white"/>
<path d="M105.945 24.6127C105.555 24.8553 105.243 25.2105 105.009 25.6177V24.1189H103.164V33.4756H105.26V28.7193C105.26 27.6363 105.642 26.7613 106.499 26.2935C107.08 25.9556 107.868 25.9123 108.431 26.0682V24.1189C107.591 23.9889 106.638 24.1362 105.945 24.6127Z" fill="white"/>
<path d="M111.631 29.3777H118.406C118.648 26.0076 116.95 23.859 114.048 23.859C111.293 23.859 109.395 25.8343 109.395 28.9012C109.395 31.7429 111.327 33.7355 114.169 33.7355C115.971 33.7355 117.583 32.7652 118.302 31.0671L116.24 30.4433C115.832 31.3097 115.07 31.7775 114.048 31.7775C112.627 31.7775 111.795 30.9198 111.631 29.3777ZM114.134 25.687C115.425 25.687 116.11 26.3368 116.283 27.8009H111.683C111.925 26.4147 112.731 25.687 114.134 25.687Z" fill="white"/>
<path d="M123.951 33.7355C126.36 33.7355 127.815 32.5919 127.815 30.7119C127.815 29.2564 127.001 28.52 124.757 27.9395C122.565 27.3851 122.201 27.1771 122.201 26.6313C122.201 26.0076 122.86 25.6264 123.839 25.6697C124.852 25.7303 125.502 26.2068 125.615 27.0039L127.746 26.6227C127.512 24.9419 125.987 23.859 123.804 23.859C121.578 23.859 120.122 24.9853 120.122 26.7353C120.122 28.1388 120.945 28.8406 123.293 29.4557C125.407 30.0188 125.675 30.1747 125.675 30.8072C125.675 31.5003 125.095 31.9248 124.099 31.9248C122.955 31.9248 122.158 31.3617 121.95 30.4347L119.819 30.7639C120.131 32.6525 121.638 33.7355 123.951 33.7355Z" fill="white"/>
</g>
<defs>
<clipPath id="clip0">
<rect width="151" height="65" fill="white"/>
</clipPath>
</defs>
</svg>
