<svg width="60" height="60" viewBox="0 0 60 60" fill="none" xmlns="http://www.w3.org/2000/svg">
<rect width="60" height="60" rx="20" fill="#F2F6FE"/>
<path d="M24.3333 25.4666H26.6M33.4 34.5333H35.6666M35.6666 24.3333L24.3333 35.6666M28.4166 14.7892L25.8575 17.3483C25.4375 17.7682 24.868 18.0041 24.2741 18.0041H20.2433C19.0067 18.0041 18.0041 19.0067 18.0041 20.2433V24.2741C18.0041 24.868 17.7682 25.4375 17.3483 25.8575L14.7892 28.4166C13.9147 29.2911 13.9147 30.7089 14.7892 31.5833L17.3483 34.1425C17.7682 34.5624 18.0041 35.1319 18.0041 35.7258V39.7566C18.0041 40.9933 19.0067 41.9958 20.2433 41.9958H24.2741C24.868 41.9958 25.4375 42.2317 25.8575 42.6517L28.4166 45.2108C29.2911 46.0853 30.7089 46.0853 31.5833 45.2108L34.1425 42.6517C34.5624 42.2317 35.1319 41.9958 35.7258 41.9958H39.7566C40.9933 41.9958 41.9958 40.9933 41.9958 39.7566V35.7258C41.9958 35.1319 42.2317 34.5624 42.6517 34.1425L45.2108 31.5833C46.0853 30.7089 46.0853 29.2911 45.2108 28.4166L42.6517 25.8575C42.2317 25.4375 41.9958 24.868 41.9958 24.2741V20.2433C41.9958 19.0067 40.9933 18.0041 39.7566 18.0041H35.7258C35.1319 18.0041 34.5624 17.7682 34.1425 17.3483L31.5833 14.7892C30.7089 13.9147 29.2911 13.9147 28.4166 14.7892Z" stroke="#FF2C9C" stroke-width="2.26667"/>
</svg>
