<svg width="60" height="60" viewBox="0 0 60 60" fill="none" xmlns="http://www.w3.org/2000/svg">
<rect width="60" height="60" rx="20" fill="#F2F6FE"/>
<path d="M24 28.9908H23V30.9908H24V28.9908ZM36 30.9908H37V28.9908H36V30.9908ZM24 35H23V37H24V35ZM36 37H37V35H36V37ZM24 22.9948H23V24.9948H24V22.9948ZM36 24.9948H37V22.9948H36V24.9948ZM42 22H43V21.5858L42.7071 21.2929L42 22ZM36 16L36.7071 15.2929L36.4142 15H36V16ZM24 30.9908H36V28.9908H24V30.9908ZM24 37H36V35H24V37ZM24 24.9948H36V22.9948H24V24.9948ZM40 43H20V45H40V43ZM19 42V18H17V42H19ZM41 22V42H43V22H41ZM20 17H36V15H20V17ZM35.2929 16.7071L41.2929 22.7071L42.7071 21.2929L36.7071 15.2929L35.2929 16.7071ZM20 43C19.4477 43 19 42.5523 19 42H17C17 43.6569 18.3431 45 20 45V43ZM40 45C41.6569 45 43 43.6569 43 42H41C41 42.5523 40.5523 43 40 43V45ZM19 18C19 17.4477 19.4477 17 20 17V15C18.3431 15 17 16.3431 17 18H19Z" fill="#FF2C9C"/>
</svg>
