<svg width="113" height="160" viewBox="0 0 113 160" fill="none" xmlns="http://www.w3.org/2000/svg">
<g opacity="0.2" clip-path="url(#clip0)">
<g opacity="0.3">
<g opacity="0.3">
<g opacity="0.3">
<path opacity="0.3" d="M113.104 156.975C112.271 157.495 112.167 158.222 112.792 158.533C113.417 158.949 114.562 158.741 115.396 158.222C116.229 157.702 116.333 156.975 115.708 156.664C114.979 156.352 113.833 156.456 113.104 156.975Z" fill="white"/>
</g>
</g>
</g>
<path d="M111.125 19.8627C109.875 20.5898 109.667 22.1479 110.604 23.1867C111.542 24.2254 113.208 24.537 114.354 23.706C115.5 22.9789 115.813 21.5247 114.875 20.3821C114.042 19.3433 112.271 19.1356 111.125 19.8627Z" fill="white"/>
<path d="M108.729 40.845C107.583 41.5721 107.375 42.9224 108.313 43.8573C109.146 44.7921 110.813 44.9999 111.958 44.2728C113.104 43.5457 113.313 42.1953 112.479 41.2605C111.542 40.3256 109.875 40.1179 108.729 40.845Z" fill="white"/>
<path d="M97.375 28.5878C96.125 29.3149 96.0209 30.7691 96.9584 31.9117C97.8959 32.9505 99.6667 33.1582 100.813 32.4311C101.958 31.704 102.167 30.2498 101.229 29.2111C100.292 28.0685 98.5208 27.8607 97.375 28.5878Z" fill="white"/>
<path d="M106.646 60.0615C105.5 60.7886 105.396 62.035 106.229 62.866C107.063 63.697 108.625 63.8009 109.771 63.1777C110.813 62.4505 111.021 61.2041 110.188 60.3731C109.25 59.5421 107.688 59.3343 106.646 60.0615Z" fill="white"/>
<path d="M95.7085 49.2588C94.5627 49.9859 94.3544 51.3362 95.396 52.2711C96.3335 53.2059 98.0002 53.3098 99.146 52.5827C100.292 51.8556 100.5 50.5052 99.5627 49.5704C98.521 48.6355 96.7502 48.5317 95.7085 49.2588Z" fill="white"/>
<path d="M83.6251 37.3132C82.3751 38.0403 82.2709 39.4945 83.3126 40.5332C84.3542 41.572 86.1251 41.7797 87.2709 40.9487C88.4167 40.2216 88.6251 38.7674 87.5834 37.7287C86.6459 36.7938 84.8751 36.5861 83.6251 37.3132Z" fill="white"/>
<path d="M104.667 77.6161C103.625 78.2393 103.417 79.3819 104.25 80.2129C105.084 80.94 106.542 81.0439 107.584 80.3168C108.625 79.6935 108.834 78.5509 108 77.8238C107.271 76.9928 105.709 76.9928 104.667 77.6161Z" fill="white"/>
<path d="M94.0417 68.0597C92.8959 68.7868 92.7917 70.0332 93.7292 70.7604C94.6667 71.5913 96.2292 71.6952 97.2709 70.9681C98.3126 70.241 98.5209 69.0984 97.5834 68.2674C96.7501 67.4364 95.1876 67.3325 94.0417 68.0597Z" fill="white"/>
<path d="M82.5833 57.5686C81.4375 58.2957 81.3333 59.646 82.2708 60.477C83.2083 61.308 84.9792 61.5157 86.125 60.7886C87.2708 60.0615 87.375 58.815 86.4375 57.8802C85.3958 56.9453 83.7292 56.8415 82.5833 57.5686Z" fill="white"/>
<path d="M69.8751 46.0386C68.6251 46.7657 68.6251 48.2199 69.6668 49.1548C70.7085 50.0896 72.5835 50.2974 73.7293 49.5703C74.8751 48.8432 74.9793 47.3889 73.9376 46.4541C73.0001 45.4153 71.1251 45.3115 69.8751 46.0386Z" fill="white"/>
<path d="M112.271 101.611C111.333 102.234 111.125 103.273 111.854 103.792C112.583 104.415 113.938 104.415 114.875 103.792C115.813 103.169 116.021 102.234 115.292 101.611C114.667 101.092 113.208 100.988 112.271 101.611Z" fill="white"/>
<path d="M102.896 93.8203C101.854 94.4435 101.75 95.4823 102.583 96.2094C103.417 96.8326 104.875 96.9365 105.813 96.2094C106.75 95.4823 106.958 94.5474 106.229 93.8203C105.292 93.197 103.833 93.0932 102.896 93.8203Z" fill="white"/>
<path d="M92.6876 85.1989C91.6459 85.8221 91.5418 86.9647 92.3751 87.6918C93.2084 88.419 94.7709 88.419 95.8126 87.7957C96.8543 87.1725 96.9584 86.0299 96.1251 85.3028C95.2918 84.6795 93.7293 84.5756 92.6876 85.1989Z" fill="white"/>
<path d="M81.5419 75.9542C80.3961 76.6813 80.2919 77.8239 81.3336 78.6549C82.2711 79.382 83.9378 79.4859 84.9794 78.8626C86.0211 78.1355 86.2294 76.9929 85.2919 76.1619C84.3544 75.3309 82.6878 75.2271 81.5419 75.9542Z" fill="white"/>
<path d="M69.4585 65.8783C68.3127 66.6054 68.2085 67.8519 69.2502 68.7868C70.2918 69.6178 72.0626 69.7216 73.1043 68.9945C74.2501 68.2674 74.3543 67.0209 73.3126 66.19C72.3751 65.2551 70.6043 65.1512 69.4585 65.8783Z" fill="white"/>
<path d="M56.2294 54.764C54.9794 55.4911 54.9794 56.9453 56.1252 57.8802C57.271 58.815 59.146 58.9189 60.2918 58.1918C61.4377 57.4647 61.5418 56.1143 60.396 55.1795C59.2502 54.1407 57.3752 54.0368 56.2294 54.764Z" fill="white"/>
<path d="M110.292 115.737C109.354 116.361 109.146 117.296 109.875 117.815C110.604 118.334 111.959 118.334 112.792 117.711C113.729 117.088 113.938 116.257 113.209 115.634C112.584 115.114 111.229 115.114 110.292 115.737Z" fill="white"/>
<path d="M101.229 108.674C100.292 109.297 100.084 110.232 100.917 110.855C101.646 111.479 103.104 111.375 104.042 110.855C104.979 110.232 105.188 109.297 104.354 108.674C103.625 108.051 102.167 108.051 101.229 108.674Z" fill="white"/>
<path d="M91.3335 101.091C90.2918 101.715 90.1877 102.753 91.021 103.377C91.8543 104 93.3127 104 94.3544 103.377C95.396 102.753 95.5002 101.715 94.6668 101.091C93.8335 100.468 92.3752 100.468 91.3335 101.091Z" fill="white"/>
<path d="M80.7085 92.8854C79.6669 93.5086 79.5627 94.6513 80.5002 95.3784C81.4377 96.1055 83.0002 96.1055 84.0419 95.4822C85.0835 94.859 85.1877 93.7164 84.3544 92.9893C83.3127 92.2622 81.7502 92.1583 80.7085 92.8854Z" fill="white"/>
<path d="M69.0419 83.9522C67.8961 84.6793 67.8961 85.8219 68.8336 86.549C69.7711 87.2761 71.5419 87.38 72.5836 86.6529C73.6253 85.9258 73.7294 84.7832 72.7919 84.056C71.8544 83.3289 70.1878 83.2251 69.0419 83.9522Z" fill="white"/>
<path d="M56.3336 74.1882C55.1877 74.9153 55.1877 76.1618 56.2294 76.9928C57.271 77.8238 59.0419 77.9276 60.1877 77.2005C61.3335 76.4734 61.3335 75.2269 60.2919 74.396C59.3544 73.565 57.4794 73.4611 56.3336 74.1882Z" fill="white"/>
<path d="M42.4795 63.4892C41.2295 64.2164 41.3336 65.5667 42.4795 66.5016C43.6253 67.4364 45.6045 67.5403 46.7503 66.8132C47.8961 66.0861 48.0003 64.7357 46.7503 63.8009C45.6045 62.866 43.7295 62.7621 42.4795 63.4892Z" fill="white"/>
<path d="M108.521 128.722C107.583 129.241 107.479 130.176 108.208 130.695C108.937 131.215 110.187 131.111 111.125 130.591C112.062 130.072 112.167 129.137 111.542 128.722C110.708 128.099 109.458 128.202 108.521 128.722Z" fill="white"/>
<path d="M99.6667 122.489C98.7292 123.113 98.625 123.944 99.3542 124.567C100.083 125.086 101.437 125.086 102.375 124.463C103.312 123.84 103.417 123.009 102.688 122.489C101.958 121.866 100.604 121.866 99.6667 122.489Z" fill="white"/>
<path d="M90.0833 115.738C89.1458 116.361 89.0417 117.296 89.7708 117.919C90.6042 118.438 91.9583 118.438 93 117.815C93.9375 117.192 94.0417 116.257 93.3125 115.634C92.4792 115.114 91.125 115.114 90.0833 115.738Z" fill="white"/>
<path d="M79.8751 108.466C78.8334 109.09 78.7293 110.128 79.6668 110.752C80.5001 111.375 82.0626 111.375 83.0001 110.752C84.0418 110.128 84.1459 109.09 83.2084 108.466C82.3751 107.739 80.8126 107.739 79.8751 108.466Z" fill="white"/>
<path d="M68.625 100.468C67.5834 101.091 67.4792 102.234 68.4167 102.857C69.3542 103.481 70.9167 103.481 71.9584 102.857C73 102.234 73.1042 101.091 72.1667 100.468C71.3334 99.845 69.6667 99.845 68.625 100.468Z" fill="white"/>
<path d="M56.5417 91.8467C55.3958 92.5738 55.3959 93.7164 56.4375 94.4435C57.4792 95.1706 59.1458 95.1706 60.2917 94.5474C61.3333 93.8203 61.4375 92.6777 60.3958 91.9505C59.3542 91.2234 57.5833 91.2234 56.5417 91.8467Z" fill="white"/>
<path d="M43.3125 82.4981C42.1667 83.2252 42.1667 84.4717 43.3125 85.3026C44.4584 86.1336 46.2292 86.1336 47.375 85.4065C48.5208 84.6794 48.5208 83.4329 47.375 82.7058C46.2292 81.8748 44.4584 81.7709 43.3125 82.4981Z" fill="white"/>
<path d="M28.7293 72.2146C27.4793 72.9417 27.5834 74.292 28.8334 75.2269C30.0834 76.0579 32.0626 76.1618 33.2084 75.4347C34.3542 74.7075 34.3542 73.3572 33.1042 72.5262C31.9584 71.4875 29.9793 71.3836 28.7293 72.2146Z" fill="white"/>
<path d="M106.854 140.875C106.021 141.394 105.813 142.225 106.542 142.641C107.271 143.056 108.417 142.952 109.354 142.433C110.188 141.914 110.396 141.083 109.667 140.667C108.938 140.252 107.688 140.356 106.854 140.875Z" fill="white"/>
<path d="M98.2083 135.266C97.2708 135.785 97.1667 136.72 97.8958 137.135C98.625 137.655 99.9792 137.551 100.813 136.928C101.646 136.304 101.854 135.474 101.125 135.058C100.396 134.643 99.1458 134.746 98.2083 135.266Z" fill="white"/>
<path d="M89.0418 129.241C88.1043 129.864 88.0002 130.695 88.8335 131.215C89.5627 131.734 91.021 131.63 91.9585 131.111C92.896 130.488 93.0002 129.657 92.271 129.137C91.3335 128.618 89.9793 128.618 89.0418 129.241Z" fill="white"/>
<path d="M79.0417 122.801C78.1042 123.424 78.0001 124.359 78.8334 124.878C79.6667 125.398 81.1251 125.398 82.0626 124.775C83 124.151 83.1042 123.217 82.2709 122.697C81.4375 122.074 79.9792 122.178 79.0417 122.801Z" fill="white"/>
<path d="M68.3124 115.738C67.2708 116.361 67.2708 117.399 68.1041 117.919C69.0416 118.542 70.6041 118.438 71.5416 117.815C72.5833 117.192 72.5833 116.153 71.7499 115.634C70.9166 115.114 69.3541 115.114 68.3124 115.738Z" fill="white"/>
<path d="M56.6459 108.155C55.6043 108.778 55.6042 109.921 56.5418 110.544C57.4793 111.167 59.146 111.167 60.1876 110.544C61.2293 109.921 61.2293 108.882 60.2918 108.155C59.3543 107.428 57.6876 107.428 56.6459 108.155Z" fill="white"/>
<path d="M44.0416 99.845C42.8957 100.572 42.8957 101.715 44.0416 102.338C45.0832 103.065 46.8541 103.065 47.8958 102.338C48.9374 101.611 49.0416 100.572 47.8958 99.845C46.8541 99.1179 45.0832 99.1179 44.0416 99.845Z" fill="white"/>
<path d="M30.1874 90.808C29.0416 91.5351 29.0416 92.7816 30.2916 93.5087C31.4374 94.2358 33.3124 94.3397 34.4583 93.6126C35.6041 92.8855 35.6041 91.7429 34.4583 90.9119C33.2083 90.0809 31.3332 90.0809 30.1874 90.808Z" fill="white"/>
<path d="M15.0834 80.94C13.8334 81.6671 13.9376 83.0175 15.2917 83.8485C16.5417 84.6794 18.6251 84.7833 19.7709 83.9523C20.9167 83.2252 20.9167 81.8749 19.6667 81.0439C18.2084 80.2129 16.2292 80.109 15.0834 80.94Z" fill="white"/>
<path d="M113.104 156.975C112.271 157.495 112.167 158.222 112.792 158.533C113.417 158.949 114.563 158.741 115.396 158.222C116.229 157.702 116.334 156.975 115.709 156.664C114.979 156.352 113.834 156.456 113.104 156.975Z" fill="white"/>
<path d="M105.292 152.197C104.459 152.716 104.354 153.444 104.979 153.859C105.604 154.275 106.854 154.171 107.688 153.651C108.521 153.132 108.625 152.405 108 151.989C107.271 151.574 106.125 151.678 105.292 152.197Z" fill="white"/>
<path d="M96.8545 147.211C96.0212 147.73 95.8128 148.561 96.542 148.977C97.2712 149.392 98.5212 149.289 99.3545 148.769C100.188 148.25 100.396 147.419 99.667 147.003C99.042 146.588 97.792 146.692 96.8545 147.211Z" fill="white"/>
<path d="M88.0003 141.81C87.0628 142.329 86.9586 143.16 87.792 143.68C88.5211 144.095 89.8753 143.991 90.8128 143.472C91.7503 142.952 91.8545 142.121 91.0211 141.602C90.1878 141.187 88.8336 141.291 88.0003 141.81Z" fill="white"/>
<path d="M78.3126 135.993C77.3751 136.616 77.271 137.447 78.1043 137.966C78.9376 138.486 80.2918 138.382 81.2293 137.759C82.1668 137.135 82.271 136.305 81.4376 135.785C80.7085 135.37 79.2501 135.474 78.3126 135.993Z" fill="white"/>
<path d="M68.0003 129.76C67.0628 130.384 66.9587 131.319 67.8962 131.838C68.7295 132.357 70.292 132.253 71.2295 131.63C72.167 131.007 72.2712 130.072 71.4379 129.553C70.3962 129.137 68.9379 129.137 68.0003 129.76Z" fill="white"/>
<path d="M56.7504 123.009C55.7087 123.632 55.7087 124.671 56.6462 125.19C57.5837 125.709 59.1462 125.709 60.1879 125.086C61.2296 124.463 61.2295 123.528 60.292 122.905C59.3545 122.385 57.792 122.385 56.7504 123.009Z" fill="white"/>
<path d="M44.667 115.738C43.6253 116.361 43.6253 117.4 44.667 118.023C45.7086 118.646 47.3753 118.542 48.417 117.919C49.4587 117.296 49.4587 116.257 48.417 115.634C47.3753 115.011 45.7086 115.114 44.667 115.738Z" fill="white"/>
<path d="M31.4378 107.843C30.2919 108.57 30.3961 109.609 31.5419 110.336C32.6877 110.959 34.4586 110.959 35.5002 110.336C36.5419 109.609 36.5419 108.57 35.5002 107.843C34.3544 107.116 32.5836 107.116 31.4378 107.843Z" fill="white"/>
<path d="M17.0628 99.1179C15.917 99.845 16.0212 100.988 17.2712 101.715C18.5212 102.442 20.3962 102.442 21.542 101.715C22.6878 100.988 22.5837 99.845 21.4378 99.1179C20.1878 98.3908 18.2087 98.3908 17.0628 99.1179Z" fill="white"/>
<path d="M1.33366 89.6654C0.083663 90.3925 0.292016 91.7429 1.64618 92.47C3.00035 93.301 4.97951 93.301 6.22951 92.5739C7.37534 91.8468 7.27116 90.6003 6.02116 89.7693C4.56283 88.9383 2.4795 88.8344 1.33366 89.6654Z" fill="white"/>
</g>
<defs>
<clipPath id="clip0">
<rect width="159" height="142" fill="white" transform="matrix(1.19249e-08 -1 -1 -1.19249e-08 142.5 159.5)"/>
</clipPath>
</defs>
</svg>
