<svg width="137" height="200" viewBox="0 0 137 200" fill="none" xmlns="http://www.w3.org/2000/svg">
<g opacity="0.2" clip-path="url(#clip0)">
<g opacity="0.3">
<g opacity="0.3">
<g opacity="0.3">
</g>
<g opacity="0.3">
<path opacity="0.3" d="M95.6401 5.89857C94.5711 7.68255 92.2549 8.39615 90.6513 7.50416C89.0478 6.61217 88.6915 4.47138 89.7605 2.6874C90.8295 0.903425 93.1457 0.189833 94.7492 0.903425C96.3528 1.97381 96.7091 4.11459 95.6401 5.89857Z" fill="white"/>
<path opacity="0.3" d="M116.664 16.7808C115.417 18.7432 113.101 19.4568 111.319 18.3864C109.537 17.4944 109.003 15.1752 110.25 13.3912C111.497 11.6073 113.813 10.7153 115.595 11.6073C117.377 12.6776 117.911 14.8184 116.664 16.7808Z" fill="white"/>
<path opacity="0.3" d="M139.648 28.5551C138.401 30.5175 135.728 31.2311 133.768 30.1607C131.808 29.0903 131.274 26.7711 132.521 24.8087C133.768 22.8464 136.263 22.1328 138.222 23.0248C140.36 24.2736 140.895 26.5927 139.648 28.5551Z" fill="white"/>
</g>
<g opacity="0.3">
<path opacity="0.3" d="M46.2873 5.54178C45.2183 7.14736 43.2584 7.86095 41.8331 7.14736C40.4077 6.43377 40.2295 4.4714 41.2986 2.68742C42.3676 1.08185 44.3274 0.368255 45.5746 1.08184C47.1781 1.79543 47.3563 3.75781 46.2873 5.54178Z" fill="white"/>
<path opacity="0.3" d="M63.7474 15.532C62.6784 17.316 60.5404 18.0296 59.115 17.1376C57.6897 16.2456 57.3333 14.2832 58.4023 12.4993C59.4713 10.7153 61.6094 10.0017 63.0347 10.8937C64.4601 11.7857 64.8164 13.7481 63.7474 15.532Z" fill="white"/>
<path opacity="0.3" d="M82.6332 26.4143C81.5642 28.1982 79.248 28.9118 77.6445 28.0199C76.041 27.1279 75.6846 24.9871 76.7536 23.2031C77.8227 21.4192 80.1388 20.7056 81.7424 21.5975C83.3459 22.3111 83.7022 24.6303 82.6332 26.4143Z" fill="white"/>
<path opacity="0.3" d="M103.123 38.1885C101.876 40.1509 99.5598 40.686 97.7781 39.7941C95.9964 38.7237 95.6401 36.4045 96.8873 34.6206C98.1345 32.8366 100.451 32.123 102.232 33.015C103.836 33.907 104.192 36.2261 103.123 38.1885Z" fill="white"/>
<path opacity="0.3" d="M125.394 51.0331C124.147 52.9955 121.653 53.7091 119.693 52.6387C117.733 51.5683 117.377 49.0708 118.446 47.1084C119.693 45.146 122.187 44.4324 124.147 45.5028C126.107 46.5732 126.642 49.0707 125.394 51.0331Z" fill="white"/>
</g>
<g opacity="0.3">
<path opacity="0.3" d="M4.06128 5.18502C3.17044 6.79059 1.38874 7.32579 0.141564 6.6122C-0.927447 5.89861 -1.10561 4.11463 -0.214767 2.50906C0.676075 0.903484 2.45776 0.368287 3.52677 1.08188C4.95212 1.79546 5.13029 3.75784 4.06128 5.18502Z" fill="white"/>
<path opacity="0.3" d="M18.6713 14.4617C17.6023 16.0672 15.8206 16.7808 14.5734 15.8889C13.3262 15.1753 13.1481 13.2129 14.2171 11.6073C15.2861 10.0017 17.0678 9.28816 18.315 10.1801C19.5622 10.8937 19.7403 12.8561 18.6713 14.4617Z" fill="white"/>
<path opacity="0.3" d="M34.3498 24.452C33.2808 26.0575 31.3209 26.7711 30.0737 25.8791C28.8266 24.9872 28.4702 23.0248 29.5392 21.4192C30.6082 19.8136 32.5681 19.1 33.8153 19.992C35.0625 20.7056 35.4188 22.8464 34.3498 24.452Z" fill="white"/>
<path opacity="0.3" d="M51.0978 35.1557C50.0288 36.9397 47.8907 37.4749 46.4654 36.5829C45.04 35.6909 44.8619 33.5501 45.9309 31.7662C46.9999 29.9822 48.9597 29.447 50.3851 30.339C51.9886 31.4094 52.345 33.5502 51.0978 35.1557Z" fill="white"/>
<path opacity="0.3" d="M69.449 46.93C68.38 48.714 66.0638 49.4276 64.6384 48.3572C63.0349 47.2868 62.8567 45.146 63.9258 43.3621C64.9948 41.5781 67.1328 40.8645 68.7363 41.9349C70.3399 42.8269 70.6962 45.146 69.449 46.93Z" fill="white"/>
<path opacity="0.3" d="M89.4041 59.5963C88.1569 61.5586 85.8407 62.0938 84.2371 61.0234C82.6336 59.9531 82.0991 57.6339 83.3463 55.6715C84.5935 53.8875 86.9097 53.1739 88.5132 54.2443C90.1167 55.3147 90.6512 57.8123 89.4041 59.5963Z" fill="white"/>
<path opacity="0.3" d="M111.141 73.5112C109.893 75.4736 107.399 76.0088 105.617 74.9384C103.836 73.6896 103.301 71.192 104.548 69.2297C105.796 67.2673 108.29 66.7321 110.072 67.8025C111.853 69.0513 112.388 71.5489 111.141 73.5112Z" fill="white"/>
<path opacity="0.3" d="M135.015 88.675C133.768 90.8158 130.918 91.351 128.958 90.1022C126.998 88.8534 126.463 86.1774 127.71 84.0367C128.958 82.0743 131.63 81.3607 133.768 82.6095C135.728 83.8583 136.263 86.7127 135.015 88.675Z" fill="white"/>
</g>
</g>
</g>
<path d="M4.06079 5.18502C3.16995 6.79059 1.38825 7.32579 0.141076 6.6122C-0.927935 5.89861 -1.1061 4.11463 -0.215256 2.50906C0.675587 0.903484 2.45727 0.368287 3.52628 1.08188C4.95163 1.79546 5.1298 3.75784 4.06079 5.18502Z" fill="white"/>
<path d="M18.6708 14.4616C17.6018 16.0672 15.8201 16.7808 14.5729 15.8888C13.3257 15.1752 13.1476 13.2129 14.2166 11.6073C15.2856 10.0017 17.0673 9.28813 18.3145 10.1801C19.5617 10.8937 19.7398 12.8561 18.6708 14.4616Z" fill="white"/>
<path d="M34.3498 24.452C33.2808 26.0576 31.3209 26.7712 30.0737 25.8792C28.8266 24.9872 28.4702 23.0248 29.5392 21.4192C30.6082 19.8137 32.5681 19.1001 33.8153 19.9921C35.0625 20.7057 35.4188 22.8464 34.3498 24.452Z" fill="white"/>
<path d="M51.0978 35.1558C50.0288 36.9397 47.8907 37.4749 46.4654 36.583C45.04 35.691 44.8619 33.5502 45.9309 31.7662C46.9999 29.9822 48.9597 29.4471 50.3851 30.339C51.9886 31.4094 52.345 33.5502 51.0978 35.1558Z" fill="white"/>
<path d="M69.449 46.93C68.38 48.714 66.0638 49.4276 64.6384 48.3572C63.0349 47.2868 62.8567 45.146 63.9258 43.3621C64.9948 41.5781 67.1328 40.8645 68.7363 41.9349C70.3398 42.8269 70.6962 45.146 69.449 46.93Z" fill="white"/>
<path d="M89.4041 59.5963C88.1569 61.5587 85.8407 62.0939 84.2372 61.0235C82.6336 59.9531 82.0991 57.6339 83.3463 55.6715C84.5935 53.8876 86.9097 53.174 88.5132 54.2443C90.1168 55.3147 90.6513 57.8123 89.4041 59.5963Z" fill="white"/>
<path d="M111.141 73.5112C109.893 75.4736 107.399 76.0088 105.617 74.9384C103.836 73.6896 103.301 71.192 104.548 69.2297C105.796 67.2673 108.29 66.7321 110.072 67.8025C111.853 69.0513 112.388 71.5488 111.141 73.5112Z" fill="white"/>
<path d="M135.015 88.675C133.768 90.8158 130.917 91.351 128.957 90.1022C126.997 88.8534 126.463 86.1774 127.71 84.0367C128.957 82.0743 131.63 81.3607 133.768 82.6095C135.728 83.8583 136.262 86.7126 135.015 88.675Z" fill="white"/>
<path d="M7.08981 32.6582C6.0208 34.2638 4.23911 34.799 3.1701 34.0854C1.92292 33.1934 1.92291 31.2311 2.81375 29.6255C3.88277 28.0199 5.66446 27.4847 6.73348 28.1983C7.80249 29.0903 7.98065 31.2311 7.08981 32.6582Z" fill="white"/>
<path d="M22.2342 43.3621C21.1652 44.9676 19.2054 45.6812 17.9582 44.7892C16.711 43.8973 16.5328 41.7565 17.6018 40.1509C18.6709 38.5453 20.4525 37.8317 21.8779 38.7237C23.1251 39.6157 23.3033 41.7565 22.2342 43.3621Z" fill="white"/>
<path d="M38.6257 54.9579C37.5567 56.7418 35.5968 57.2771 34.1714 56.2067C32.7461 55.1363 32.5679 52.9955 33.6369 51.3899C34.7059 49.606 36.6658 49.0708 38.0912 49.9628C39.5165 51.0332 39.6947 53.1739 38.6257 54.9579Z" fill="white"/>
<path d="M56.4427 67.4457C55.3737 69.2297 53.2356 69.7649 51.6321 68.6945C50.2068 67.6241 49.8504 65.3049 50.9194 63.521C51.9884 61.737 54.1265 61.2018 55.73 62.2722C57.3335 63.3426 57.5117 65.6617 56.4427 67.4457Z" fill="white"/>
<path d="M75.6847 81.0039C74.4375 82.9663 72.1213 83.5015 70.5178 82.2527C68.9143 81.0039 68.558 78.6847 69.8051 76.7224C71.0523 74.9384 73.1903 74.2248 74.972 75.4735C76.5756 76.7223 76.9319 79.2199 75.6847 81.0039Z" fill="white"/>
<path d="M96.8873 95.9893C95.6401 97.9516 93.1458 98.4868 91.3641 97.2381C89.5824 95.9893 89.226 93.3133 90.4732 91.5293C91.7204 89.567 94.2148 89.0318 95.9965 90.2806C97.6 91.3509 98.1345 94.0269 96.8873 95.9893Z" fill="white"/>
<path d="M120.049 112.223C118.801 114.364 116.129 114.721 114.169 113.472C112.209 112.045 111.675 109.369 112.922 107.228C114.169 105.266 116.842 104.731 118.801 105.98C120.761 107.407 121.296 110.083 120.049 112.223Z" fill="white"/>
<path d="M10.1186 62.4505C9.04956 64.0561 7.26786 64.5913 6.02067 63.6993C4.77349 62.8073 4.59532 60.6665 5.66434 59.0609C6.73336 57.4554 8.51504 56.9202 9.76223 57.8122C11.0094 58.5258 11.1876 60.6665 10.1186 62.4505Z" fill="white"/>
<path d="M26.1539 74.76C25.0849 76.5439 23.1251 77.0791 21.6997 76.0087C20.4525 74.9384 20.0962 72.7976 21.1652 71.0136C22.2342 69.2296 24.1941 68.6944 25.6194 69.7648C27.0448 70.6568 27.223 72.976 26.1539 74.76Z" fill="white"/>
<path d="M43.258 87.9613C42.189 89.7453 40.051 90.2805 38.6256 89.2101C37.2003 88.1397 36.8439 85.6422 38.0911 84.0366C39.1601 82.2526 41.2981 81.7174 42.7235 82.7878C44.1488 83.8582 44.5052 86.1774 43.258 87.9613Z" fill="white"/>
<path d="M62.1438 102.59C60.8966 104.552 58.7586 104.909 57.155 103.66C55.5515 102.412 55.1952 99.914 56.4424 98.13C57.6895 96.3461 59.8276 95.8109 61.4311 96.8812C63.0346 98.13 63.391 100.628 62.1438 102.59Z" fill="white"/>
<path d="M82.6334 118.289C81.3862 120.251 78.8919 120.787 77.2884 119.359C75.5067 117.932 75.1504 115.435 76.3975 113.472C77.6447 111.51 79.9609 110.975 81.7426 112.402C83.3461 113.651 83.8806 116.327 82.6334 118.289Z" fill="white"/>
<path d="M105.083 135.772C103.836 137.913 101.163 138.269 99.2033 136.842C97.2434 135.415 96.8871 132.561 98.1343 130.42C99.3814 128.458 102.054 127.922 103.836 129.35C105.796 130.777 106.33 133.631 105.083 135.772Z" fill="white"/>
<path d="M13.5043 94.3837C12.4352 96.1677 10.4754 96.5245 9.2282 95.4541C7.98102 94.3837 7.80284 92.0645 8.87185 90.2806C9.94087 88.4966 11.9007 88.1398 13.1479 89.2102C14.3951 90.459 14.5733 92.5997 13.5043 94.3837Z" fill="white"/>
<path d="M30.2526 108.656C29.1836 110.439 27.0455 110.975 25.6202 109.726C24.1948 108.477 24.0166 106.158 25.0857 104.374C26.1547 102.59 28.2927 102.055 29.7181 103.304C31.1434 104.374 31.3216 106.693 30.2526 108.656Z" fill="white"/>
<path d="M48.4255 123.998C47.1783 125.96 45.0403 126.317 43.4368 125.068C41.8332 123.819 41.6551 121.143 42.7241 119.359C43.9713 117.575 46.1093 117.04 47.7128 118.289C49.3163 119.538 49.6727 122.035 48.4255 123.998Z" fill="white"/>
<path d="M68.3805 140.767C67.1333 142.729 64.8171 143.086 63.0354 141.659C61.4319 140.232 61.0755 137.556 62.3227 135.594C63.5699 133.631 65.8861 133.274 67.6678 134.702C69.2713 136.129 69.6277 138.805 68.3805 140.767Z" fill="white"/>
<path d="M90.1169 159.142C88.8697 161.283 86.1972 161.64 84.4155 160.034C82.6338 158.428 82.0993 155.574 83.5247 153.612C84.7718 151.649 87.2662 151.114 89.2261 152.72C91.0078 154.147 91.3641 157.18 90.1169 159.142Z" fill="white"/>
<path d="M1.03259 114.186C-0.0364294 115.97 -1.99629 116.327 -3.24348 115.078C-4.49066 113.829 -4.66884 111.51 -3.59982 109.904C-2.5308 108.12 -0.570934 107.763 0.676255 108.834C1.92344 110.083 2.10161 112.402 1.03259 114.186Z" fill="white"/>
<path d="M17.2456 129.171C16.1766 130.955 14.0386 131.312 12.6132 130.063C11.1879 128.814 11.0097 126.317 12.2569 124.533C13.3259 122.749 15.4639 122.392 16.7111 123.641C18.1365 124.89 18.3146 127.387 17.2456 129.171Z" fill="white"/>
<path d="M34.8844 145.405C33.6372 147.368 31.4992 147.725 30.0739 146.297C28.6485 144.87 28.2922 142.373 29.5393 140.41C30.7865 138.626 32.9246 138.091 34.3499 139.518C35.7753 140.945 35.9534 143.621 34.8844 145.405Z" fill="white"/>
<path d="M54.1266 163.245C52.8794 165.207 50.5633 165.564 48.9597 163.959C47.3562 162.532 46.9999 159.677 48.247 157.715C49.4942 155.752 51.8104 155.396 53.414 156.823C55.0175 158.428 55.3738 161.283 54.1266 163.245Z" fill="white"/>
<path d="M75.1509 182.69C73.9037 184.831 71.4094 185.01 69.4495 183.404C67.6678 181.798 67.3115 178.766 68.5587 176.803C69.8058 174.841 72.3002 174.484 74.0819 176.09C76.0417 177.695 76.3981 180.728 75.1509 182.69Z" fill="white"/>
<path d="M4.06085 149.687C2.99183 151.471 0.853802 151.828 -0.393382 150.4C-1.64057 148.973 -1.81874 146.476 -0.749728 144.692C0.319286 142.908 2.27915 142.551 3.7045 143.8C5.12985 145.405 5.30803 147.903 4.06085 149.687Z" fill="white"/>
<path d="M21.1651 166.813C19.9179 168.775 17.7799 168.954 16.3545 167.527C14.9292 166.099 14.751 163.423 15.82 161.461C17.0672 159.677 19.2052 159.32 20.6306 160.747C22.056 162.353 22.4123 165.029 21.1651 166.813Z" fill="white"/>
<path d="M39.6947 185.545C38.4475 187.507 36.1313 187.864 34.5278 186.08C32.9243 184.474 32.7461 181.62 33.9933 179.658C35.2405 177.695 37.5567 177.339 39.1602 178.944C40.7637 180.728 40.9419 183.761 39.6947 185.545Z" fill="white"/>
<path d="M60.1843 206.239C58.9371 208.38 56.4427 208.558 54.661 206.774C52.8794 204.99 52.523 201.957 53.9483 199.995C55.1955 198.033 57.6899 197.676 59.4716 199.46C61.0751 201.065 61.4314 204.098 60.1843 206.239Z" fill="white"/>
<path d="M7.44629 188.399C6.19911 190.362 4.06108 190.54 2.8139 188.934C1.38855 187.329 1.21039 184.653 2.45757 182.869C3.70475 181.085 5.6646 180.728 7.08995 182.334C8.5153 183.761 8.69347 186.437 7.44629 188.399Z" fill="white"/>
<path d="M25.4415 208.023C24.1943 209.985 21.8781 210.164 20.4527 208.558C19.0274 206.953 18.6711 203.92 19.9182 201.957C21.1654 199.995 23.3035 199.817 24.907 201.422C26.5105 203.206 26.6886 206.061 25.4415 208.023Z" fill="white"/>
</g>
<defs>
<clipPath id="clip0">
<rect width="138" height="200" fill="white" transform="translate(-1)"/>
</clipPath>
</defs>
</svg>
