<svg width="159" height="142" viewBox="0 0 159 142" fill="none" xmlns="http://www.w3.org/2000/svg">
<g opacity="0.2" clip-path="url(#clip0)">
<g opacity="0.3">
<g opacity="0.3">
<g opacity="0.3">
<path opacity="0.3" d="M138.713 1.58323C139.232 2.41656 139.959 2.62489 140.375 2.10406C140.79 1.58323 140.687 0.437394 140.167 -0.291771C139.648 -1.1251 138.921 -1.33344 138.505 -0.812604C138.194 -0.291771 138.194 0.749897 138.713 1.58323Z" fill="white"/>
</g>
<g opacity="0.3">
<path opacity="0.3" d="M149.412 4.18747C149.931 5.02081 150.658 5.12498 150.97 4.60415C151.385 4.08332 151.282 3.04165 150.762 2.20831C150.243 1.47914 149.516 1.2708 149.204 1.79164C148.789 2.31247 148.892 3.35414 149.412 4.18747Z" fill="white"/>
<path opacity="0.3" d="M144.634 10.8541C145.153 11.6875 145.88 11.8958 146.296 11.2708C146.711 10.75 146.607 9.60413 146.088 8.7708C145.569 7.93747 144.841 7.72912 144.426 8.35412C144.01 8.97912 144.114 10.0208 144.634 10.8541Z" fill="white"/>
</g>
<g opacity="0.3">
<path opacity="0.3" d="M159.488 6.5833C160.007 7.31246 160.63 7.52079 160.942 6.99996C161.253 6.47912 161.15 5.43746 160.734 4.7083C160.215 3.97913 159.592 3.77081 159.28 4.29164C158.864 4.70831 158.968 5.74997 159.488 6.5833Z" fill="white"/>
<path opacity="0.3" d="M155.125 13.1458C155.644 13.9792 156.371 14.0833 156.683 13.5625C156.995 13.0417 156.891 11.8958 156.475 11.1667C155.956 10.4375 155.333 10.2292 154.917 10.75C154.502 11.2708 154.606 12.3125 155.125 13.1458Z" fill="white"/>
<path opacity="0.3" d="M150.554 20.125C151.074 20.9583 151.801 21.0625 152.216 20.5416C152.632 19.9166 152.528 18.7708 152.009 18.0417C151.489 17.2083 150.762 17.1042 150.347 17.625C149.931 18.25 150.035 19.3958 150.554 20.125Z" fill="white"/>
</g>
<g opacity="0.3">
<path opacity="0.3" d="M156.475 29.3958C156.995 30.2291 157.722 30.3333 158.033 29.7083C158.449 29.0833 158.241 27.9375 157.722 27.1041C157.202 26.2708 156.475 26.1666 156.164 26.7916C155.852 27.5208 155.956 28.6666 156.475 29.3958Z" fill="white"/>
</g>
</g>
</g>
<path d="M1.91193 3.97925C2.63904 5.22925 4.19714 5.43758 5.33975 4.70841C6.48236 3.87508 6.79398 2.31258 6.06686 1.06258C5.33975 -0.0832573 3.78165 -0.395754 2.63904 0.333413C1.49643 1.16675 1.18482 2.72925 1.91193 3.97925Z" fill="white"/>
<path d="M23.725 7.52087C24.4521 8.66671 25.9063 8.97922 26.8412 8.14588C27.8799 7.31255 28.0877 5.8542 27.3606 4.70836C26.6334 3.56252 25.2831 3.25003 24.2444 4.08337C23.3095 4.81254 22.9979 6.37504 23.725 7.52087Z" fill="white"/>
<path d="M10.6371 17.7291C11.3642 18.9791 12.9223 19.1874 14.0649 18.3541C15.2075 17.5208 15.4153 15.8541 14.6882 14.6041C13.961 13.4583 12.4029 13.1458 11.3642 13.9791C10.2216 14.8124 9.90995 16.4791 10.6371 17.7291Z" fill="white"/>
<path d="M54.2638 1.89581C54.887 2.93748 56.1335 3.24999 56.9645 2.52082C57.7955 1.79165 57.8993 0.437482 57.2761 -0.604187C56.6529 -1.64586 55.4064 -1.95836 54.5754 -1.2292C53.7444 -0.604194 53.6405 0.749977 54.2638 1.89581Z" fill="white"/>
<path d="M43.669 10.8542C44.3961 12 45.6426 12.2083 46.5774 11.4791C47.5123 10.75 47.6161 9.18748 46.9929 8.14581C46.2658 7.10414 45.0193 6.79164 44.0845 7.5208C43.1496 8.24997 42.9419 9.70832 43.669 10.8542Z" fill="white"/>
<path d="M32.0354 20.6458C32.7626 21.7917 34.1129 22 35.1517 21.1667C36.0865 20.3333 36.2943 18.7708 35.5672 17.625C34.84 16.4792 33.4897 16.2708 32.4509 17.1042C31.5161 17.9375 31.3083 19.5 32.0354 20.6458Z" fill="white"/>
<path d="M19.3628 31.375C20.0899 32.625 21.648 32.8333 22.6867 31.8958C23.7255 30.9583 24.0371 29.2916 23.2061 28.1458C22.479 27 21.0247 26.6875 19.8821 27.625C18.8434 28.4583 18.6356 30.2292 19.3628 31.375Z" fill="white"/>
<path d="M71.2992 5.125C71.9225 6.16667 73.0651 6.375 73.7922 5.64583C74.5193 4.91667 74.6232 3.56249 73.9999 2.62499C73.3767 1.58333 72.2341 1.375 71.507 2C70.7799 2.72917 70.676 4.08333 71.2992 5.125Z" fill="white"/>
<path d="M61.8465 13.8751C62.4697 14.9168 63.7162 15.1251 64.5472 14.3959C65.3782 13.6668 65.4821 12.2084 64.755 11.1668C64.1317 10.1251 62.8852 9.91675 62.1581 10.6459C61.3271 11.3751 61.2233 12.8334 61.8465 13.8751Z" fill="white"/>
<path d="M51.5633 23.3542C52.2904 24.5 53.5369 24.7083 54.3679 23.875C55.1989 23.0417 55.4066 21.5833 54.6795 20.4375C53.9524 19.3959 52.7059 19.0834 51.8749 19.9167C51.0439 20.75 50.94 22.3125 51.5633 23.3542Z" fill="white"/>
<path d="M40.3449 33.7709C41.072 34.9167 42.4224 35.125 43.3572 34.1875C44.2921 33.3542 44.4998 31.6875 43.7727 30.5417C43.0456 29.3959 41.6953 29.1875 40.7604 30.0209C39.8255 30.9584 39.6178 32.625 40.3449 33.7709Z" fill="white"/>
<path d="M28.0876 45.125C28.8147 46.375 30.2689 46.4792 31.4115 45.5417C32.4502 44.6042 32.658 42.8334 31.9309 41.6875C31.2038 40.5417 29.7495 40.3334 28.7108 41.2709C27.5682 42.2084 27.3605 43.9792 28.0876 45.125Z" fill="white"/>
<path d="M94.8786 0.229219C95.5018 1.16672 96.4367 1.37506 97.0599 0.750055C97.6832 0.125052 97.6832 -1.12495 97.0599 -2.06246C96.4367 -2.99996 95.5018 -3.20829 94.8786 -2.58329C94.3592 -1.95829 94.2553 -0.708285 94.8786 0.229219Z" fill="white"/>
<path d="M87.0882 8.04169C87.7114 8.97919 88.7502 9.29169 89.3734 8.56252C89.9966 7.93752 90.1005 6.58337 89.4773 5.64587C88.854 4.70837 87.8153 4.39587 87.1921 5.12504C86.465 5.75004 86.465 7.10419 87.0882 8.04169Z" fill="white"/>
<path d="M78.6745 16.5834C79.2978 17.6251 80.4404 17.8334 81.1675 17.1043C81.8946 16.3751 81.8946 15.0209 81.2714 13.9792C80.6481 12.9376 79.5055 12.7292 78.8823 13.4584C78.0513 14.1876 78.0513 15.6459 78.6745 16.5834Z" fill="white"/>
<path d="M69.5332 25.8542C70.1565 26.8959 71.403 27.1042 72.1301 26.2709C72.8572 25.4376 72.9611 23.9792 72.3378 22.9376C71.7146 21.8959 70.572 21.6876 69.741 22.4167C68.91 23.3542 68.8061 24.8126 69.5332 25.8542Z" fill="white"/>
<path d="M59.5618 35.8542C60.2889 37 61.5354 37.1042 62.3663 36.2709C63.1973 35.4375 63.3012 33.875 62.678 32.7292C61.9508 31.6875 60.7044 31.4792 59.8734 32.3125C59.0424 33.25 58.8347 34.8125 59.5618 35.8542Z" fill="white"/>
<path d="M48.759 46.7917C49.4861 47.9375 50.8364 48.1458 51.7713 47.1042C52.7061 46.1667 52.81 44.5 52.0829 43.3542C51.3558 42.2084 50.0054 42 49.0706 42.9375C48.1357 43.9792 48.0318 45.75 48.759 46.7917Z" fill="white"/>
<path d="M36.8131 58.875C37.5402 60.125 38.9944 60.2292 40.0332 59.1875C41.0719 58.1459 41.2797 56.375 40.4487 55.2292C39.7216 54.0834 38.2673 53.875 37.2286 54.9167C36.2938 55.8542 36.086 57.625 36.8131 58.875Z" fill="white"/>
<path d="M108.694 3.14591C109.213 4.08341 110.148 4.29174 110.771 3.66674C111.29 3.04174 111.29 1.89592 110.771 0.958415C110.252 0.0209139 109.317 -0.18742 108.798 0.437581C108.07 1.06258 108.07 2.31257 108.694 3.14591Z" fill="white"/>
<path d="M101.63 10.8542C102.253 11.7917 103.188 12.0001 103.811 11.3751C104.435 10.7501 104.435 9.50005 103.811 8.56254C103.188 7.62504 102.253 7.41671 101.734 8.04171C101.111 8.66671 101.111 9.91673 101.63 10.8542Z" fill="white"/>
<path d="M94.1514 19.1876C94.7747 20.1251 95.8134 20.3334 96.4366 19.6043C97.0599 18.8751 97.0599 17.5209 96.4366 16.5834C95.8134 15.6459 94.7747 15.4376 94.1514 16.0626C93.5282 16.7918 93.5282 18.1459 94.1514 19.1876Z" fill="white"/>
<path d="M85.9454 28.1459C86.5686 29.1876 87.7112 29.2918 88.3345 28.5626C89.0616 27.8334 89.0616 26.3751 88.4384 25.4376C87.8151 24.3959 86.7764 24.2917 86.0493 25.0209C85.3222 25.6459 85.3222 27.1042 85.9454 28.1459Z" fill="white"/>
<path d="M77.1161 37.8334C77.7394 38.8751 78.882 39.0834 79.7129 38.25C80.4401 37.4167 80.5439 35.9584 79.8168 34.9167C79.1936 33.875 78.051 33.6667 77.3239 34.5C76.4929 35.2292 76.4929 36.7917 77.1161 37.8334Z" fill="white"/>
<path d="M67.5599 48.4584C68.287 49.6042 69.5335 49.7084 70.2606 48.7709C71.0916 47.8334 71.1955 46.2709 70.4683 45.2292C69.7412 44.1875 68.5986 43.9792 67.7677 44.9167C66.9367 45.75 66.8328 47.3125 67.5599 48.4584Z" fill="white"/>
<path d="M57.0688 59.9167C57.7959 61.0625 59.1463 61.1667 59.9773 60.2292C60.8082 59.2917 61.016 57.5208 60.2889 56.375C59.5618 55.2292 58.3153 55.125 57.3804 56.0625C56.4456 57.1042 56.3417 58.7708 57.0688 59.9167Z" fill="white"/>
<path d="M45.5384 72.625C46.2655 73.875 47.7197 73.875 48.6546 72.8334C49.5895 71.7917 49.7972 69.9167 49.0701 68.7709C48.343 67.625 46.8887 67.5209 45.9539 68.5626C44.9152 69.5 44.8113 71.375 45.5384 72.625Z" fill="white"/>
<path d="M121.47 5.95829C121.989 6.79162 122.82 6.99995 123.34 6.47912C123.859 5.85413 123.755 4.7083 123.236 3.87497C122.716 3.04165 121.885 2.83331 121.366 3.35414C120.951 3.87497 120.951 5.0208 121.47 5.95829Z" fill="white"/>
<path d="M115.238 13.4584C115.757 14.3959 116.692 14.6042 117.211 13.875C117.731 13.25 117.731 12 117.107 11.1667C116.588 10.2292 115.653 10.0208 115.134 10.6458C114.614 11.2708 114.614 12.5209 115.238 13.4584Z" fill="white"/>
<path d="M108.486 21.4792C109.109 22.4167 110.044 22.625 110.563 21.8958C111.082 21.1667 111.082 19.9167 110.563 18.9792C109.94 18.0417 109.005 17.8333 108.486 18.5625C107.862 19.2917 107.862 20.5417 108.486 21.4792Z" fill="white"/>
<path d="M101.111 30.2291C101.734 31.1666 102.773 31.375 103.292 30.6458C103.915 29.9166 103.915 28.5625 103.292 27.625C102.669 26.6875 101.734 26.4791 101.111 27.2083C100.591 27.8333 100.488 29.2916 101.111 30.2291Z" fill="white"/>
<path d="M93.3201 39.6041C93.9433 40.6458 94.9821 40.75 95.7092 39.9166C96.3324 39.0833 96.4363 37.625 95.7092 36.6875C94.9821 35.75 94.0472 35.5416 93.3201 36.2708C92.6969 37.2083 92.593 38.6666 93.3201 39.6041Z" fill="white"/>
<path d="M84.6989 49.8125C85.3222 50.8541 86.4648 50.9583 87.1919 50.125C87.919 49.2916 87.919 47.7291 87.2958 46.6875C86.6725 45.6458 85.5299 45.5416 84.8028 46.375C84.1796 47.2083 84.0757 48.7708 84.6989 49.8125Z" fill="white"/>
<path d="M75.4543 60.9583C76.1814 62.1042 77.324 62.2083 78.155 61.1666C78.8821 60.2291 78.986 58.5625 78.3627 57.5208C77.6356 56.4791 76.493 56.2708 75.662 57.2083C74.8311 58.1458 74.7272 59.8125 75.4543 60.9583Z" fill="white"/>
<path d="M65.378 73.0416C66.1051 74.1875 67.3516 74.2916 68.2865 73.25C69.1175 72.2083 69.2213 70.4375 68.4942 69.3958C67.7671 68.25 66.5206 68.1458 65.6896 69.1875C64.7548 70.125 64.6509 71.8958 65.378 73.0416Z" fill="white"/>
<path d="M54.264 86.2708C54.9911 87.5208 56.4453 87.5208 57.3802 86.3749C58.315 85.2291 58.4189 83.3541 57.6918 82.2083C56.9647 81.0624 55.6143 80.9583 54.6795 82.1041C53.6407 83.2499 53.5368 85.1249 54.264 86.2708Z" fill="white"/>
<path d="M138.713 1.58335C139.232 2.41668 139.959 2.62502 140.375 2.10418C140.79 1.58335 140.686 0.437516 140.167 -0.291649C139.648 -1.12498 138.921 -1.33331 138.505 -0.812482C138.193 -0.291649 138.193 0.750019 138.713 1.58335Z" fill="white"/>
<path d="M133.415 8.45837C133.935 9.2917 134.766 9.50003 135.181 8.87503C135.597 8.25003 135.597 7.10421 134.973 6.37504C134.454 5.54171 133.623 5.33337 133.208 5.95837C132.896 6.4792 132.896 7.62504 133.415 8.45837Z" fill="white"/>
<path d="M127.806 15.8542C128.326 16.6875 129.157 16.8959 129.676 16.2709C130.195 15.6459 130.091 14.5 129.572 13.5625C129.053 12.7292 128.222 12.5209 127.702 13.1459C127.183 13.7709 127.287 14.9167 127.806 15.8542Z" fill="white"/>
<path d="M121.781 23.6666C122.301 24.6041 123.236 24.7083 123.755 24.0833C124.274 23.4583 124.17 22.2083 123.651 21.2708C123.132 20.3333 122.197 20.2291 121.678 20.8541C121.158 21.5833 121.158 22.8333 121.781 23.6666Z" fill="white"/>
<path d="M115.237 32.2084C115.861 33.1459 116.796 33.3542 117.315 32.6251C117.834 31.8959 117.834 30.5417 117.211 29.7084C116.588 28.7709 115.757 28.5626 115.134 29.2917C114.614 29.9167 114.614 31.2709 115.237 32.2084Z" fill="white"/>
<path d="M108.174 41.2708C108.797 42.2083 109.732 42.4167 110.355 41.5833C110.979 40.8542 110.875 39.3958 110.355 38.4583C109.732 37.5208 108.797 37.3125 108.174 38.1458C107.551 38.875 107.551 40.3333 108.174 41.2708Z" fill="white"/>
<path d="M100.591 51.1667C101.215 52.2084 102.253 52.3125 102.877 51.4792C103.5 50.6458 103.5 49.1875 102.877 48.1458C102.253 47.1042 101.215 47 100.591 47.8333C99.9681 48.6667 99.9681 50.125 100.591 51.1667Z" fill="white"/>
<path d="M92.3852 61.7917C93.0085 62.8334 94.1511 62.9375 94.8782 62C95.6053 61.0625 95.6053 59.5001 94.9821 58.4584C94.3588 57.4167 93.2162 57.3126 92.4891 58.1459C91.762 59.1876 91.6581 60.75 92.3852 61.7917Z" fill="white"/>
<path d="M83.4521 73.4584C84.1792 74.6042 85.3218 74.6042 86.0489 73.6667C86.776 72.7292 86.8799 70.9584 86.1528 69.9167C85.4256 68.875 84.283 68.7709 83.5559 69.7084C82.8288 70.6459 82.7249 72.3125 83.4521 73.4584Z" fill="white"/>
<path d="M73.688 86.1667C74.4151 87.3125 75.6616 87.3125 76.4925 86.2709C77.3235 85.2292 77.4274 83.4584 76.7003 82.3125C75.9732 81.1667 74.7267 81.1667 73.8957 82.2084C73.0647 83.1459 72.9608 85.0209 73.688 86.1667Z" fill="white"/>
<path d="M62.9889 100.021C63.716 101.271 65.0664 101.167 66.0013 100.021C66.9361 98.875 67.04 96.8958 66.3129 95.75C65.5858 94.6042 64.2354 94.5 63.3005 95.75C62.3657 96.8958 62.2618 98.7708 62.9889 100.021Z" fill="white"/>
<path d="M144.634 10.8541C145.153 11.6875 145.88 11.8958 146.296 11.2708C146.711 10.75 146.607 9.60413 146.088 8.7708C145.569 7.93746 144.841 7.72912 144.426 8.35412C144.01 8.97912 144.114 10.0208 144.634 10.8541Z" fill="white"/>
<path d="M139.544 18.0417C140.063 18.875 140.894 19.0833 141.31 18.4583C141.725 17.8333 141.621 16.6875 141.102 15.8542C140.583 15.0208 139.752 14.8125 139.336 15.4375C138.921 16.0625 139.025 17.2083 139.544 18.0417Z" fill="white"/>
<path d="M134.142 25.75C134.662 26.5833 135.493 26.7916 136.012 26.1666C136.428 25.5416 136.428 24.2916 135.804 23.4583C135.285 22.625 134.454 22.4166 133.935 23.0416C133.519 23.6666 133.519 24.9166 134.142 25.75Z" fill="white"/>
<path d="M128.222 33.9792C128.741 34.9167 129.676 35.0208 130.195 34.2917C130.715 33.5625 130.611 32.3125 130.091 31.375C129.572 30.4375 128.637 30.3333 128.222 30.9583C127.598 31.7917 127.702 33.0417 128.222 33.9792Z" fill="white"/>
<path d="M121.989 42.8333C122.612 43.7708 123.443 43.875 124.067 43.1458C124.586 42.4167 124.586 41.0625 123.963 40.125C123.34 39.1875 122.509 39.0833 121.989 39.8125C121.366 40.5417 121.366 41.8958 121.989 42.8333Z" fill="white"/>
<path d="M115.238 52.4166C115.861 53.3541 116.796 53.4583 117.419 52.7291C117.938 51.8958 117.938 50.5416 117.315 49.4999C116.692 48.5624 115.757 48.4583 115.134 49.1874C114.614 50.0208 114.614 51.3749 115.238 52.4166Z" fill="white"/>
<path d="M107.966 62.625C108.59 63.6666 109.628 63.7708 110.252 62.8333C110.875 62 110.875 60.4375 110.252 59.5C109.628 58.4583 108.59 58.3541 107.966 59.2916C107.239 60.125 107.239 61.6875 107.966 62.625Z" fill="white"/>
<path d="M99.9682 73.875C100.591 74.9166 101.734 75.0208 102.357 74.0833C102.981 73.1458 102.981 71.5833 102.357 70.5416C101.734 69.5 100.591 69.3958 99.9682 70.3333C99.345 71.1666 99.345 72.8333 99.9682 73.875Z" fill="white"/>
<path d="M91.3465 85.9583C92.0737 87.1042 93.2163 87.1041 93.9434 86.0625C94.6705 85.0208 94.6705 83.3542 94.0472 82.2083C93.3201 81.1667 92.1775 81.0625 91.4504 82.1042C90.7233 83.1458 90.7233 84.9167 91.3465 85.9583Z" fill="white"/>
<path d="M81.998 99.1875C82.7251 100.333 83.9716 100.333 84.8026 99.1875C85.6336 98.0416 85.6336 96.2708 84.9065 95.125C84.1793 93.9792 82.9329 93.9792 82.2057 95.125C81.3748 96.2708 81.2709 98.0416 81.998 99.1875Z" fill="white"/>
<path d="M71.7146 113.771C72.4417 115.021 73.792 114.917 74.7269 113.667C75.5579 112.417 75.6618 110.437 74.9347 109.292C74.2075 108.146 72.8572 108.146 72.0262 109.396C70.9875 110.542 70.8836 112.521 71.7146 113.771Z" fill="white"/>
<path d="M150.555 20.125C151.074 20.9583 151.801 21.0625 152.217 20.5417C152.632 19.9167 152.528 18.7708 152.009 18.0417C151.489 17.2083 150.762 17.1042 150.347 17.625C149.931 18.25 150.035 19.3958 150.555 20.125Z" fill="white"/>
<path d="M145.672 27.625C146.192 28.4583 147.023 28.6666 147.334 27.9375C147.75 27.3125 147.646 26.1666 147.127 25.3333C146.607 24.5 145.88 24.2916 145.465 24.9166C145.049 25.6458 145.153 26.7916 145.672 27.625Z" fill="white"/>
<path d="M140.375 35.6459C140.894 36.4792 141.725 36.6875 142.141 35.9584C142.556 35.2292 142.452 34.0834 141.933 33.1459C141.414 32.3125 140.583 32.1042 140.167 32.8334C139.752 33.5625 139.856 34.8125 140.375 35.6459Z" fill="white"/>
<path d="M134.766 44.2917C135.285 45.2292 136.22 45.3333 136.635 44.6042C137.155 43.875 137.051 42.5208 136.428 41.6875C135.804 40.8542 134.974 40.6458 134.558 41.375C134.143 42.1042 134.246 43.3542 134.766 44.2917Z" fill="white"/>
<path d="M128.741 53.4583C129.364 54.3958 130.195 54.5 130.715 53.6666C131.234 52.9375 131.13 51.4791 130.611 50.5416C129.988 49.6041 129.157 49.5 128.637 50.2291C128.118 51.1666 128.118 52.5208 128.741 53.4583Z" fill="white"/>
<path d="M122.301 63.4583C122.924 64.3958 123.859 64.5 124.379 63.6667C124.898 62.8333 124.898 61.375 124.275 60.4375C123.652 59.5 122.717 59.3958 122.197 60.2292C121.574 61.0625 121.678 62.5208 122.301 63.4583Z" fill="white"/>
<path d="M115.238 74.1875C115.861 75.2292 116.9 75.2292 117.419 74.3958C118.042 73.4583 117.938 71.8958 117.315 70.9583C116.692 69.9167 115.653 69.9167 115.134 70.75C114.614 71.5833 114.614 73.1458 115.238 74.1875Z" fill="white"/>
<path d="M107.655 85.8542C108.278 86.8959 109.421 86.8959 110.044 85.9584C110.667 85.0209 110.667 83.3542 110.044 82.3125C109.421 81.2708 108.382 81.2708 107.655 82.2083C106.928 83.1458 106.928 84.8125 107.655 85.8542Z" fill="white"/>
<path d="M99.345 98.4584C100.072 99.6042 101.215 99.6042 101.838 98.4584C102.565 97.4167 102.565 95.6458 101.838 94.6042C101.111 93.5625 100.072 93.4583 99.345 94.6042C98.6179 95.6458 98.6179 97.4167 99.345 98.4584Z" fill="white"/>
<path d="M90.3081 112.312C91.0353 113.458 92.2817 113.458 93.0088 112.208C93.736 111.062 93.8398 109.187 93.1127 108.042C92.3856 106.896 91.243 106.896 90.412 108.042C89.581 109.292 89.581 111.167 90.3081 112.312Z" fill="white"/>
<path d="M80.4403 127.417C81.1674 128.667 82.5178 128.562 83.3488 127.208C84.1797 125.958 84.2836 123.875 83.4526 122.729C82.7255 121.583 81.3752 121.583 80.5442 122.833C79.7132 124.292 79.6093 126.271 80.4403 127.417Z" fill="white"/>
<path d="M156.475 29.3958C156.995 30.2292 157.722 30.3334 158.033 29.7084C158.449 29.0834 158.241 27.9375 157.722 27.1042C157.202 26.2708 156.475 26.1667 156.164 26.7917C155.852 27.5208 155.956 28.6667 156.475 29.3958Z" fill="white"/>
<path d="M151.697 37.2084C152.216 38.0417 152.944 38.1459 153.359 37.5209C153.775 36.8959 153.671 35.6459 153.151 34.8126C152.632 33.9792 151.905 33.8751 151.489 34.5001C151.074 35.2292 151.178 36.375 151.697 37.2084Z" fill="white"/>
<path d="M146.711 45.6459C147.231 46.4792 148.062 46.6875 148.477 45.9584C148.893 45.2292 148.789 43.9792 148.269 43.1459C147.75 42.3125 146.919 42.1042 146.503 42.8334C146.088 43.4584 146.192 44.7084 146.711 45.6459Z" fill="white"/>
<path d="M141.31 54.5C141.829 55.4375 142.66 55.5417 143.18 54.7083C143.595 53.9792 143.491 52.625 142.972 51.6875C142.453 50.75 141.622 50.6458 141.102 51.4792C140.687 52.3125 140.791 53.6667 141.31 54.5Z" fill="white"/>
<path d="M135.493 64.1875C136.116 65.125 136.947 65.2292 137.467 64.3958C137.986 63.5625 137.882 62.2083 137.259 61.2708C136.636 60.3333 135.805 60.2292 135.285 61.0625C134.87 61.7917 134.974 63.25 135.493 64.1875Z" fill="white"/>
<path d="M129.26 74.5C129.884 75.4375 130.819 75.5417 131.338 74.6042C131.857 73.7709 131.753 72.2083 131.13 71.2708C130.507 70.3333 129.572 70.2292 129.053 71.0625C128.637 72.1042 128.637 73.5625 129.26 74.5Z" fill="white"/>
<path d="M122.509 85.75C123.132 86.7917 124.171 86.7917 124.69 85.8542C125.209 84.9167 125.209 83.3542 124.586 82.3125C123.963 81.2708 123.028 81.2708 122.405 82.2083C121.885 83.1458 121.885 84.7083 122.509 85.75Z" fill="white"/>
<path d="M115.238 97.8334C115.861 98.8751 116.9 98.8751 117.523 97.8334C118.146 96.7917 118.042 95.125 117.419 94.0834C116.796 93.0417 115.757 93.0417 115.134 94.0834C114.511 95.125 114.614 96.7917 115.238 97.8334Z" fill="white"/>
<path d="M107.343 111.062C108.07 112.208 109.109 112.104 109.836 110.958C110.459 109.813 110.459 108.042 109.836 107C109.109 105.958 108.07 105.958 107.343 107C106.616 108.146 106.616 109.917 107.343 111.062Z" fill="white"/>
<path d="M98.6179 125.438C99.345 126.583 100.488 126.479 101.215 125.229C101.942 123.979 101.942 122.104 101.215 120.958C100.488 119.813 99.345 119.917 98.6179 121.063C97.8907 122.313 97.8907 124.292 98.6179 125.438Z" fill="white"/>
<path d="M89.1655 141.167C89.8926 142.417 91.2429 142.208 91.9701 140.854C92.801 139.5 92.801 137.521 92.0739 136.271C91.3468 135.125 90.1003 135.229 89.2694 136.479C88.4384 137.938 88.3345 140.021 89.1655 141.167Z" fill="white"/>
</g>
<defs>
<clipPath id="clip0">
<rect width="159" height="142" fill="white" transform="matrix(-1 0 0 1 159 0)"/>
</clipPath>
</defs>
</svg>
