<svg width="17" height="17" viewBox="0 0 17 17" fill="none" xmlns="http://www.w3.org/2000/svg">
<rect x="0.710449" y="0.677032" width="16.1083" height="16.1083" rx="2" fill="#FF2C9C"/>
<path d="M9.00702 12.0132C10.5689 12.0132 11.6448 11.1733 12.0647 9.84266L10.9181 9.52651C10.6538 10.4089 10.0215 10.9421 9.00702 10.9421C7.63861 10.9421 6.94968 9.96062 6.94968 8.47424C6.9544 6.98786 7.63861 6.00638 9.00702 6.00638C10.0215 6.00638 10.6538 6.53959 10.9181 7.42198L12.0647 7.10583C11.6448 5.77516 10.5689 4.93524 9.00702 4.93524C6.97328 4.93524 5.75586 6.365 5.75586 8.47424C5.75586 10.5835 6.97328 12.0132 9.00702 12.0132Z" fill="white"/>
</svg>
